<svg xmlns="http://www.w3.org/2000/svg" xmlns:xlink="http://www.w3.org/1999/xlink" version="1.1" data-diagram-type="DESCRIPTION" style="width:935px;height:1012px;background:#FFFFFF;" width="935px" height="1012px" viewBox="0 0 935 1012" zoomAndPan="magnify" preserveAspectRatio="none" contentStyleType="text/css"><?plantuml 1.2026.8?><defs/><g font-family="sans-serif" lengthAdjust="spacing"><g class="title" data-source-line="3"><text x="307.357" y="26.187" fill="#000" font-size="15" textLength="313.572" font-weight="700" font-family="'Segoe UI'">Architecture physique (déploiement Docker)</text></g><!--cluster client--><g class="cluster" data-qualified-name="client" id="ent0001" data-source-line="5"><polygon points="198,54.951,208,44.951,384,44.951,384,172.951,374,182.951,198,182.951,198,54.951" fill="#FFF" style="stroke:#8C8E90;stroke-width:1;stroke-linejoin:miter;stroke-miterlimit:10;"/><line x1="374" y1="54.951" x2="384" y2="44.951" style="stroke:#8C8E90;stroke-width:1;"/><line x1="198" y1="54.951" x2="374" y2="54.951" style="stroke:#8C8E90;stroke-width:1;"/><line x1="374" y1="54.951" x2="374" y2="182.951" style="stroke:#8C8E90;stroke-width:1;"/><text x="251.542" y="71.979" fill="#000" font-size="13" textLength="70.916" font-weight="700" font-family="'Segoe UI'">Poste client</text></g><!--cluster host--><g class="cluster" data-qualified-name="host" id="ent0003" data-source-line="9"><polygon points="14,241.951,24,231.951,608,231.951,608,977.951,598,987.951,14,987.951,14,241.951" fill="#FFF" style="stroke:#8C8E90;stroke-width:1;stroke-linejoin:miter;stroke-miterlimit:10;"/><line x1="598" y1="241.951" x2="608" y2="231.951" style="stroke:#8C8E90;stroke-width:1;"/><line x1="14" y1="241.951" x2="598" y2="241.951" style="stroke:#8C8E90;stroke-width:1;"/><line x1="598" y1="241.951" x2="598" y2="987.951" style="stroke:#8C8E90;stroke-width:1;"/><text x="225.322" y="258.979" fill="#000" font-size="13" textLength="163.357" font-weight="700" font-family="'Segoe UI'">Serveur (Docker Compose)</text></g><!--cluster nginx--><g class="cluster" data-qualified-name="host.nginx" id="ent0004" data-source-line="10"><polygon points="263,294.951,273,284.951,475,284.951,475,429.951,465,439.951,263,439.951,263,294.951" fill="#FFF" style="stroke:#8C8E90;stroke-width:1;stroke-linejoin:miter;stroke-miterlimit:10;"/><line x1="465" y1="294.951" x2="475" y2="284.951" style="stroke:#8C8E90;stroke-width:1;"/><line x1="263" y1="294.951" x2="465" y2="294.951" style="stroke:#8C8E90;stroke-width:1;"/><line x1="465" y1="294.951" x2="465" y2="439.951" style="stroke:#8C8E90;stroke-width:1;"/><text x="338.013" y="311.979" fill="#000" font-size="13" textLength="53.974" font-weight="700" font-family="'Segoe UI'">frontend</text><text x="332.903" y="329.271" fill="#000" font-size="13" textLength="64.194" font-weight="700" font-family="'Segoe UI'">nginx 1.27</text></g><!--cluster backend--><g class="cluster" data-qualified-name="host.backend" id="ent0006" data-source-line="13"><polygon points="248,498.951,258,488.951,471,488.951,471,615.951,461,625.951,248,625.951,248,498.951" fill="#FFF" style="stroke:#8C8E90;stroke-width:1;stroke-linejoin:miter;stroke-miterlimit:10;"/><line x1="461" y1="498.951" x2="471" y2="488.951" style="stroke:#8C8E90;stroke-width:1;"/><line x1="248" y1="498.951" x2="461" y2="498.951" style="stroke:#8C8E90;stroke-width:1;"/><line x1="461" y1="498.951" x2="461" y2="625.951" style="stroke:#8C8E90;stroke-width:1;"/><text x="329.744" y="515.979" fill="#000" font-size="13" textLength="51.511" font-weight="700" font-family="'Segoe UI'">backend</text><text x="281.728" y="533.271" fill="#000" font-size="13" textLength="147.545" font-weight="700" font-family="'Segoe UI'">Java 17, Spring Boot 3.5</text></g><!--cluster ai--><g class="cluster" data-qualified-name="host.ai" id="ent0008" data-source-line="16"><polygon points="312,684.951,322,674.951,588,674.951,588,819.951,578,829.951,312,829.951,312,684.951" fill="#FFF" style="stroke:#8C8E90;stroke-width:1;stroke-linejoin:miter;stroke-miterlimit:10;"/><line x1="578" y1="684.951" x2="588" y2="674.951" style="stroke:#8C8E90;stroke-width:1;"/><line x1="312" y1="684.951" x2="578" y2="684.951" style="stroke:#8C8E90;stroke-width:1;"/><line x1="578" y1="684.951" x2="578" y2="829.951" style="stroke:#8C8E90;stroke-width:1;"/><text x="417.058" y="701.979" fill="#000" font-size="13" textLength="57.884" font-weight="700" font-family="'Segoe UI'">ai-service</text><text x="382.946" y="719.271" fill="#000" font-size="13" textLength="126.109" font-weight="700" font-family="'Segoe UI'">Python 3.12, FastAPI</text></g><!--cluster internet--><g class="cluster" data-qualified-name="internet" id="ent0013" data-source-line="24"><path d="M641.926,872.145 C648.128,863.686 656.527,864.017 661.16,873.8 C664.962,864.143 671.814,863.155 678.634,870.742 C683.898,861.15 693.302,860.465 699.384,869.848 C705.484,860.261 714.377,861.778 718.781,871.547 C724.492,862.98 730.325,860.766 737.59,869.897 C742.573,860.935 748.393,860.116 755.667,867.338 C761.273,860.156 768.209,858.527 773.236,867.951 C778.665,860.133 787.941,860.904 792.142,869.376 C798.916,859.04 807.177,860.684 813.735,869.617 C819.345,861.809 826.151,860.081 831.77,869.608 C838.09,862.029 847.353,864.088 850.965,872.798 C855.729,865.22 862.322,863.538 868.31,871.425 C875.109,861.961 881.284,863.684 887.284,872.265 C897.541,861.298 909.562,863.689 913,878.951 C914.154,877.344 915.576,877.423 916.422,879.258 C926.986,886.306 927.648,898.453 914.95,904.124 C929.105,911.23 927.652,918.828 917.58,928.543 C929.287,937.977 927.772,946.981 913.978,952.597 C924.391,965.783 924.019,975.765 906,980.951 C908.499,980.329 909.73,981.083 909.664,983.781 C903.677,992.685 895.563,992.203 889.731,983.605 C883.244,993.38 877.227,992.069 870.324,984.06 C865.279,995.769 855.522,995.396 848.958,985.567 C844.164,996.208 837.712,996.167 830.554,987.865 C826.144,996.144 819.362,997.005 813.418,989.533 C808.685,1000.299 798.358,998.925 792.503,990.774 C787.501,999.561 779.437,998.424 774.121,991.134 C770.134,1001.55 761.456,999.641 755.924,992.76 C749.28,1002.459 741.099,1000.843 736.29,990.925 C727.471,998.958 720.554,996.405 715.397,986.629 C711.231,995.598 704.333,996.856 698.541,988.182 C690.816,997.724 683.04,997.386 677.721,985.811 C671.399,994.117 665.256,995.269 658.772,985.985 C643.036,996.12 634.759,992.685 632,973.951 C632.943,974.382 633.064,974.891 632.286,975.617 C620.496,969.773 620.095,957.594 631.318,950.85 C619.561,944.663 617.659,937.081 629.017,928.513 C618.56,922.023 619.859,911.419 630.165,905.987 C613.98,892.431 620.063,876.39 639,871.951 C639.827,870.643 641.269,870.887 641.926,872.145" style="stroke:#8C8E90;stroke-width:1;" fill="none"/><text x="747.896" y="890.979" fill="#000" font-size="13" textLength="49.207" font-weight="700" font-family="'Segoe UI'">Internet</text></g><g class="entity" data-qualified-name="GMN25" id="ent0026" data-source-line="40"><path d="M628,563.951 L628,600.533 A4,4 0 0 0 632,604.533 L910.383,604.533 A4,4 0 0 0 914.383,600.533 L914.383,569.951 L904.383,559.951 L632,559.951 A4,4 0 0 0 628,563.951" style="stroke:#E81B6B;stroke-width:0.5;" fill="#FFF4F8"/><path d="M904.383,559.951 L904.383,567.951 A2,2 0 0 0 906.383,569.951 L914.383,569.951 L904.383,559.951" style="stroke:#E81B6B;stroke-width:1;" fill="#FFF4F8"/><text x="634" y="578.979" fill="#000" font-size="13" textLength="242.633" font-family="'Segoe UI'">Seul nginx est ouvert au réseau ; ai-service</text><text x="634" y="596.271" fill="#000" font-size="13" textLength="265.383" font-family="'Segoe UI'">et MySQL restent sur le réseau interne Docker.</text></g><!--entity browser--><g class="entity" data-qualified-name="client.browser" id="ent0002" data-source-line="6"><rect x="218" y="97.951" width="146.349" height="64.582" fill="#EEF2FA" style="stroke:#132B64;stroke-width:0.5;" rx="4" ry="4"/><rect x="344.349" y="102.951" width="15" height="10" fill="#EEF2FA" style="stroke:#132B64;stroke-width:0.5;"/><rect x="342.349" y="104.951" width="4" height="2" fill="#EEF2FA" style="stroke:#132B64;stroke-width:0.5;"/><rect x="342.349" y="108.951" width="4" height="2" fill="#EEF2FA" style="stroke:#132B64;stroke-width:0.5;"/><text x="233" y="131.979" fill="#000" font-size="13" textLength="63.064" font-family="'Segoe UI'">Navigateur</text><text x="233" y="149.271" fill="#000" font-size="13" textLength="106.349" font-family="'Segoe UI'">(application React)</text></g><!--entity mysql--><g class="entity" data-qualified-name="host.mysql" id="ent0010" data-source-line="19"><path d="M34.5,755.451 C34.5,745.451 75.093,745.451 75.093,745.451 C75.093,745.451 115.685,745.451 115.685,755.451 L115.685,799.033 C115.685,809.033 75.093,809.033 75.093,809.033 C75.093,809.033 34.5,809.033 34.5,799.033 L34.5,755.451" style="stroke:#132B64;stroke-width:0.5;" fill="#EEF2FA"/><path d="M34.5,755.451 C34.5,765.451 75.093,765.451 75.093,765.451 C75.093,765.451 115.685,765.451 115.685,755.451" style="stroke:#132B64;stroke-width:0.5;" fill="none"/><text x="44.5" y="783.479" fill="#000" font-size="13" textLength="33.808" font-family="'Segoe UI'">mysql</text><text x="44.5" y="800.771" fill="#000" font-size="13" textLength="61.185" font-family="'Segoe UI'">MySQL 8.0</text></g><!--entity mailpit--><g class="entity" data-qualified-name="host.mailpit" id="ent0011" data-source-line="20"><polygon points="134,754.951,144,744.951,271.932,744.951,271.932,799.533,261.932,809.533,134,809.533,134,754.951" fill="#FFF" style="stroke:#132B64;stroke-width:0.5;stroke-linejoin:miter;stroke-miterlimit:10;"/><line x1="261.932" y1="754.951" x2="271.932" y2="744.951" style="stroke:#132B64;stroke-width:0.5;"/><line x1="134" y1="754.951" x2="261.932" y2="754.951" style="stroke:#132B64;stroke-width:0.5;"/><line x1="261.932" y1="754.951" x2="261.932" y2="809.533" style="stroke:#132B64;stroke-width:0.5;"/><text x="149" y="778.979" fill="#000" font-size="13" textLength="39.305" font-family="'Segoe UI'">mailpit</text><text x="149" y="796.271" fill="#000" font-size="13" textLength="97.932" font-family="'Segoe UI'">(développement)</text></g><!--entity volumes--><g class="entity" data-qualified-name="host.volumes" id="ent0012" data-source-line="21"><rect x="120" y="912.951" width="170.382" height="54.582" fill="#F1F1F1" style="stroke:#181818;stroke-width:0.5;" rx="35" ry="35"/><text x="130" y="936.979" fill="#000" font-size="13" textLength="47.861" font-family="'Segoe UI'">volumes</text><text x="130" y="954.271" fill="#000" font-size="13" textLength="150.382" font-family="'Segoe UI'">uploads, cv-store, db-data</text></g><!--entity static--><g class="entity" data-qualified-name="host.nginx.static" id="ent0005" data-source-line="11"><rect x="317" y="354.951" width="137.817" height="64.582" fill="#EEF2FA" style="stroke:#132B64;stroke-width:0.5;" rx="4" ry="4"/><rect x="434.817" y="359.951" width="15" height="10" fill="#EEF2FA" style="stroke:#132B64;stroke-width:0.5;"/><rect x="432.817" y="361.951" width="4" height="2" fill="#EEF2FA" style="stroke:#132B64;stroke-width:0.5;"/><rect x="432.817" y="365.951" width="4" height="2" fill="#EEF2FA" style="stroke:#132B64;stroke-width:0.5;"/><text x="332" y="388.979" fill="#000" font-size="13" textLength="97.817" font-family="'Segoe UI'">Fichiers statiques</text><text x="332" y="406.271" fill="#000" font-size="13" textLength="62.785" font-family="'Segoe UI'">(build Vite)</text></g><!--entity api--><g class="entity" data-qualified-name="host.backend.api" id="ent0007" data-source-line="14"><rect x="325.5" y="558.951" width="116.788" height="47.291" fill="#EEF2FA" style="stroke:#132B64;stroke-width:0.5;" rx="4" ry="4"/><rect x="422.288" y="563.951" width="15" height="10" fill="#EEF2FA" style="stroke:#132B64;stroke-width:0.5;"/><rect x="420.288" y="565.951" width="4" height="2" fill="#EEF2FA" style="stroke:#132B64;stroke-width:0.5;"/><rect x="420.288" y="569.951" width="4" height="2" fill="#EEF2FA" style="stroke:#132B64;stroke-width:0.5;"/><text x="340.5" y="592.979" fill="#000" font-size="13" textLength="76.788" font-family="'Segoe UI'">API REST /api</text></g><!--entity aicomp--><g class="entity" data-qualified-name="host.ai.aicomp" id="ent0009" data-source-line="17"><rect x="366" y="744.951" width="202.1" height="64.582" fill="#EEF2FA" style="stroke:#132B64;stroke-width:0.5;" rx="4" ry="4"/><rect x="548.1" y="749.951" width="15" height="10" fill="#EEF2FA" style="stroke:#132B64;stroke-width:0.5;"/><rect x="546.1" y="751.951" width="4" height="2" fill="#EEF2FA" style="stroke:#132B64;stroke-width:0.5;"/><rect x="546.1" y="755.951" width="4" height="2" fill="#EEF2FA" style="stroke:#132B64;stroke-width:0.5;"/><text x="381" y="778.979" fill="#000" font-size="13" textLength="84.627" font-family="'Segoe UI'">Analyse de CV,</text><text x="381" y="796.271" fill="#000" font-size="13" textLength="162.1" font-family="'Segoe UI'">matching, import, brouillons</text></g><!--entity smtp--><g class="entity" data-qualified-name="internet.smtp" id="ent0014" data-source-line="25"><polygon points="785.5,917.951,795.5,907.951,904.858,907.951,904.858,962.533,894.858,972.533,785.5,972.533,785.5,917.951" fill="#FFF" style="stroke:#132B64;stroke-width:0.5;stroke-linejoin:miter;stroke-miterlimit:10;"/><line x1="894.858" y1="917.951" x2="904.858" y2="907.951" style="stroke:#132B64;stroke-width:0.5;"/><line x1="785.5" y1="917.951" x2="894.858" y2="917.951" style="stroke:#132B64;stroke-width:0.5;"/><line x1="894.858" y1="917.951" x2="894.858" y2="972.533" style="stroke:#132B64;stroke-width:0.5;"/><text x="800.5" y="941.979" fill="#000" font-size="13" textLength="79.358" font-family="'Segoe UI'">Serveur SMTP</text><text x="800.5" y="959.271" fill="#000" font-size="13" textLength="40.873" font-family="'Segoe UI'">(Gmail)</text></g><!--entity sites--><g class="entity" data-qualified-name="internet.sites" id="ent0015" data-source-line="26"><polygon points="640.5,917.951,650.5,907.951,767.05,907.951,767.05,962.533,757.05,972.533,640.5,972.533,640.5,917.951" fill="#FFF" style="stroke:#132B64;stroke-width:0.5;stroke-linejoin:miter;stroke-miterlimit:10;"/><line x1="757.05" y1="917.951" x2="767.05" y2="907.951" style="stroke:#132B64;stroke-width:0.5;"/><line x1="640.5" y1="917.951" x2="757.05" y2="917.951" style="stroke:#132B64;stroke-width:0.5;"/><line x1="757.05" y1="917.951" x2="757.05" y2="972.533" style="stroke:#132B64;stroke-width:0.5;"/><text x="655.5" y="941.979" fill="#000" font-size="13" textLength="54.171" font-family="'Segoe UI'">Sites web</text><text x="655.5" y="959.271" fill="#000" font-size="13" textLength="86.55" font-family="'Segoe UI'">des entreprises</text></g><g class="link" data-entity-1="ent0002" data-entity-2="ent0004" id="lnk16" data-link-type="dependency"><polygon points="291,284.444,295,275.444,291,279.444,287,275.444,291,284.444" fill="#132B64" style="stroke:#132B64;stroke-width:1;stroke-linejoin:miter;stroke-miterlimit:10;"/><path d="M291,162.975 C291,191.558 291,235.415 291,276.731 C291,279.313 291,276.886 291,279.444" style="stroke:#132B64;stroke-width:1;" fill="none"/><text x="304.559" y="204.821" fill="#000" font-size="11" textLength="133.171" font-family="'Segoe UI'">HTTP :8080 (HTTPS derrière</text><text x="293" y="219.452" fill="#000" font-size="11" textLength="156.288" font-family="'Segoe UI'">un proxy TLS), cookie de session</text></g><g class="link" data-entity-1="ent0004" data-entity-2="ent0006" id="lnk17" data-link-type="dependency"><polygon points="291,488.916,295,479.916,291,483.916,287,479.916,291,488.916" fill="#132B64" style="stroke:#132B64;stroke-width:1;stroke-linejoin:miter;stroke-miterlimit:10;"/><path d="M291,440.149 C291,440.627 291,441.107 291,441.589 C291,443.516 291,445.472 291,447.454 C291,451.417 291,455.48 291,459.609 C291,467.869 291,476.394 291,484.92 C291,485.986 291,487.052 291,488.117 C291,488.383 291,483.65 291,483.916" style="stroke:#132B64;stroke-width:1;" fill="none"/><text x="299.314" y="461.821" fill="#000" font-size="11" textLength="54.613" font-family="'Segoe UI'">HTTP :8081</text><text x="293" y="476.452" fill="#000" font-size="11" textLength="67.241" font-family="'Segoe UI'">/api, /uploads</text></g><g class="link" data-entity-1="ent0006" data-entity-2="ent0010" id="lnk18" data-link-type="dependency"><polygon points="83.762,745.243,90.382,737.951,85.33,740.495,82.785,735.443,83.762,745.243" fill="#132B64" style="stroke:#132B64;stroke-width:1;stroke-linejoin:miter;stroke-miterlimit:10;"/><path d="M247.853,591.627 C247.508,591.712 247.161,591.798 246.812,591.885 C245.419,592.233 244.007,592.594 242.576,592.968 C236.855,594.463 230.852,596.168 224.698,598.105 C200.083,605.854 173.056,617.322 152,633.951 C115.919,662.447 96.085,707.922 85.33,740.495" style="stroke:#132B64;stroke-width:1;" fill="none"/><text x="154" y="655.321" fill="#000" font-size="11" textLength="53.872" font-family="'Segoe UI'">JDBC :3306</text></g><g class="link" data-entity-1="ent0006" data-entity-2="ent0008" id="lnk19" data-link-type="dependency"><polygon points="327.955,674.775,329.586,665.062,326.709,669.933,321.839,667.055,327.955,674.775" fill="#132B64" style="stroke:#132B64;stroke-width:1;stroke-linejoin:miter;stroke-miterlimit:10;"/><path d="M311.066,626.274 C311.111,626.383 311.157,626.492 311.202,626.6 C311.293,626.818 311.384,627.036 311.475,627.255 C311.84,628.129 312.204,629.009 312.569,629.897 C315.483,636.995 318.378,644.504 321.026,652.115 C322.35,655.921 323.612,659.752 324.784,663.571 C325.37,665.48 325.933,667.386 326.47,669.285 C326.739,670.234 327.001,671.181 327.256,672.126 C327.384,672.598 327.509,673.07 327.633,673.541 C327.695,673.776 327.757,674.011 327.818,674.246 C327.849,674.364 327.879,674.482 327.909,674.599 C327.925,674.658 326.694,669.874 326.709,669.933" style="stroke:#132B64;stroke-width:1;" fill="none"/><text x="327" y="647.821" fill="#000" font-size="11" textLength="54.613" font-family="'Segoe UI'">HTTP :8000</text><text x="328.966" y="662.452" fill="#000" font-size="11" textLength="50.682" font-family="'Segoe UI'">clé interne</text></g><g class="link" data-entity-1="ent0006" data-entity-2="ent0011" id="lnk20" data-link-type="dependency"><polygon points="201.654,744.765,205.691,735.781,201.674,739.765,197.691,735.748,201.654,744.765" fill="#132B64" style="stroke:#132B64;stroke-width:1;stroke-linejoin:miter;stroke-miterlimit:10;"/><path d="M247.879,609.485 C247.797,609.552 247.715,609.62 247.634,609.688 C247.47,609.823 247.307,609.959 247.143,610.096 C246.817,610.369 246.491,610.643 246.167,610.92 C243.57,613.134 241.034,615.468 238.617,617.917 C233.784,622.816 229.425,628.174 226,633.951 C205.808,668.01 201.8,709.309 201.674,739.765" style="stroke:#132B64;stroke-width:1;" fill="none"/><text x="228" y="655.321" fill="#000" font-size="11" textLength="56.762" font-family="'Segoe UI'">SMTP :1025</text></g><g class="link" data-entity-1="ent0006" data-entity-2="ent0014" id="lnk21" data-link-type="dependency"><polygon points="824.689,907.696,822.99,897.995,821.9,903.545,816.349,902.456,824.689,907.696" fill="#132B64" style="stroke:#132B64;stroke-width:1;stroke-linejoin:miter;stroke-miterlimit:10;"/><path d="M317,625.951 C330.2,634.371 371.532,631.525 387,633.951 C478.793,648.35 510.314,630.671 592,674.951 C698.422,732.641 783.767,846.787 821.9,903.545" style="stroke:#132B64;stroke-width:1;stroke-dasharray:7,7;" fill="none"/><text x="767" y="782.321" fill="#000" font-size="11" textLength="108.313" font-family="'Segoe UI'">SMTP :587 (STARTTLS)</text></g><g class="link" data-entity-1="ent0008" data-entity-2="ent0015" id="lnk22" data-link-type="dependency"><polygon points="674.086,907.906,670.263,898.829,670.441,904.483,664.787,904.661,674.086,907.906" fill="#132B64" style="stroke:#132B64;stroke-width:1;stroke-linejoin:miter;stroke-miterlimit:10;"/><path d="M357,829.951 C372.555,842.295 426.291,835.525 446,837.951 C520.118,847.077 543.852,833.413 612,863.951 C635.192,874.344 653.691,888.757 670.441,904.483" style="stroke:#132B64;stroke-width:1;stroke-dasharray:7,7;" fill="none"/><text x="591" y="851.821" fill="#000" font-size="11" textLength="120.576" font-family="'Segoe UI'">HTTPS (pages publiques)</text></g><g class="link" data-entity-1="ent0006" data-entity-2="ent0012" id="lnk23" data-link-type="dependency"><polygon points="230.2,912.619,239.09,908.38,233.45,908.82,233.01,903.18,230.2,912.619" fill="#132B64" style="stroke:#132B64;stroke-width:1;stroke-linejoin:miter;stroke-miterlimit:10;"/><path d="M296.373,626.562 C296.42,627.06 296.466,627.561 296.511,628.065 C296.695,630.082 296.875,632.153 297.05,634.275 C298.452,651.244 299.554,671.435 299.594,693.217 C299.673,736.779 295.506,786.705 281,829.951 C270.476,861.324 251.246,888.015 233.45,908.82" style="stroke:#132B64;stroke-width:1;" fill="none"/></g><g class="link" data-entity-1="ent0010" data-entity-2="ent0012" id="lnk24" data-link-type="dependency"><polygon points="183.46,912.775,180.918,903.26,180.319,908.885,174.694,908.286,183.46,912.775" fill="#132B64" style="stroke:#132B64;stroke-width:1;stroke-linejoin:miter;stroke-miterlimit:10;"/><path d="M100.065,809.494 C124.266,839.465 157.384,880.48 180.319,908.885" style="stroke:#132B64;stroke-width:1;" fill="none"/></g><g class="link" data-entity-1="ent0003" data-entity-2="ent0026" id="lnk27" data-link-type="association"><path d="M608.177,416.923 C608.359,417.107 608.542,417.292 608.726,417.478 C609.094,417.85 609.464,418.224 609.837,418.601 C612.821,421.615 615.97,424.798 619.257,428.119 C632.406,441.406 647.765,456.926 663.567,472.893 C695.171,504.828 728.545,538.552 749.554,559.78" style="stroke:#132B64;stroke-width:1;stroke-dasharray:7,7;" fill="none"/></g><?plantuml-src RLJBRjim4BphApO-sO2is37I62uG88-cJP4KRYJa9A2W9COcGf4CIIaHYlnFynt-iIv9sOdHdlJOsPtTsI4Fb2QhcW0ddMmic9fQ8aXqm4J9cuh2BsCxJXFLr3oop78APxfSCqjBssWAQjqPzjHG65QRDyKbepKL5Yvb-KZrA8g4n1g3fJIMGiaPnWP0JFyAloE0KjPA2lSr-45QjYAMDZeNGw8KPoMnJ0guewIq8vzPQFbig8vUjxLJgblCW67WX0jNpz20NYEnPmdO1os5fQBAXLWnyGBJvEZ4uyAd0-urTCLmLAeD68kDu9W66oiQnYkuHma2Xu-LcFgwuoa8jk9elfEMmFGaXbHf9bPmBgM5MN8SHWceVsdFbjTmzoNDu90evg7ut2CWR8mYjAoakLXsTeqQpPBfKGnNn5XC3qdiFwK5uPsXW4KkxkDSrCJYY68L0qECjh4J60VaKfY-YClkoIjYIK4mVL1tvedduhPBVzx0F9buhF-vwx4cZ2jcKJ6qHakvLCgR8wZMHn5jh4GBOa8hULCxYHiq4gbC36KxTb4QGrMC7RbFxN7E0YMNJGM3Qzog5ZHuY_KV7_Q-zKXwcosndw-El5zURTKx37Tgu9aMkQZm1NlL5FTcQ932kB1ZxJq8u_5fxvm5VCko9Ipca_a4XkuzHOcrPfi_6bVK251QldIGtQGZ74lAH-PtWAKD6ZmALLozhIa-L9pcmXaXXiDUc6WBSWbUT8H_lpo_WCLiDlcq5qOJl9UQJ78yrfkthKRxXS964EvaWiLqSdIy0oJ9gTTg5psUdy0mpSxkCZTJX3GUuXKCX2aC5UxLW6eAxW_FQ8zlkyOmmCS_UBBnkYYajR86-U1FCIuffGtlzQPuh6NJKcs1DA0tRuRYypEydml4emM2FpN2dViDMW0li2sy5w6_h9B8DUQO_m80?></g></svg>