<svg xmlns="http://www.w3.org/2000/svg" xmlns:xlink="http://www.w3.org/1999/xlink" version="1.1" data-diagram-type="DESCRIPTION" style="width:664px;height:976px;background:#FFFFFF;" width="664px" height="976px" viewBox="0 0 664 976" zoomAndPan="magnify" preserveAspectRatio="none" contentStyleType="text/css"><?plantuml 1.2026.8?><defs/><g font-family="sans-serif" lengthAdjust="spacing"><g class="title" data-source-line="4"><text x="165.474" y="26.187" fill="#000" font-size="15" textLength="326.052" font-weight="700" font-family="'Segoe UI'">Raffinement des cas d'utilisation du Recruteur</text></g><!--cluster Espace recruteur--><g class="cluster" data-qualified-name="Espace recruteur" id="ent0004" data-source-line="10"><rect x="136" y="44.951" width="219" height="908" fill="none" style="stroke:#8C8E90;stroke-width:1;" rx="4" ry="4"/><text x="194.916" y="60.979" fill="#000" font-size="13" textLength="101.169" font-weight="700" font-family="'Segoe UI'">Espace recruteur</text></g><!--entity R--><g class="entity" data-qualified-name="R" id="ent0001" data-source-line="6"><ellipse cx="33.768" cy="345.951" rx="8" ry="8" fill="#FFF" style="stroke:#132B64;stroke-width:0.5;"/><path d="M33.768,353.951 L33.768,380.951 M20.768,361.951 L46.768,361.951 M33.768,380.951 L20.768,395.951 M33.768,380.951 L46.768,395.951" style="stroke:#132B64;stroke-width:0.5;" fill="none"/><text x="6" y="411.479" fill="#000" font-size="13" textLength="55.536" font-family="'Segoe UI'">Recruteur</text></g><!--entity IA--><g class="entity" data-qualified-name="IA" id="ent0002" data-source-line="7"><ellipse cx="411.971" cy="848.242" rx="8" ry="8" fill="#FFF" style="stroke:#132B64;stroke-width:0.5;"/><path d="M411.971,856.242 L411.971,883.242 M398.971,864.242 L424.971,864.242 M411.971,883.242 L398.971,898.242 M411.971,883.242 L424.971,898.242" style="stroke:#132B64;stroke-width:0.5;" fill="none"/><text x="384.066" y="913.771" fill="#000" font-size="13" textLength="55.809" font-family="'Segoe UI'">Service IA</text><text x="383" y="836.479" fill="#000" font-size="13" textLength="57.941" font-style="italic" font-family="'Segoe UI'">«système»</text></g><!--entity W--><g class="entity" data-qualified-name="W" id="ent0003" data-source-line="8"><ellipse cx="606.828" cy="839.742" rx="8" ry="8" fill="#FFF" style="stroke:#132B64;stroke-width:0.5;"/><path d="M606.828,847.742 L606.828,874.742 M593.828,855.742 L619.828,855.742 M606.828,874.742 L593.828,889.742 M606.828,874.742 L619.828,889.742" style="stroke:#132B64;stroke-width:0.5;" fill="none"/><text x="566" y="905.271" fill="#000" font-size="13" textLength="48.655" font-family="'Segoe UI'">Site web</text><text x="566" y="922.562" fill="#000" font-size="13" textLength="81.656" font-family="'Segoe UI'">de l'entreprise</text><text x="577.857" y="827.979" fill="#000" font-size="13" textLength="57.941" font-style="italic" font-family="'Segoe UI'">«système»</text></g><!--entity UC_publish--><g class="entity" data-qualified-name="Espace recruteur.UC_publish" id="ent0005" data-source-line="11"><ellipse cx="245.448" cy="104.841" rx="67.448" ry="15.89" fill="#EEF2FA" style="stroke:#132B64;stroke-width:0.5;"/><text x="197.647" y="109.986" fill="#000" font-size="13" textLength="95.602" font-family="'Segoe UI'">Publier une offre</text></g><!--entity UC_edit--><g class="entity" data-qualified-name="Espace recruteur.UC_edit" id="ent0006" data-source-line="12"><ellipse cx="245.251" cy="156.001" rx="70.751" ry="16.55" fill="#EEF2FA" style="stroke:#132B64;stroke-width:0.5;"/><text x="193.082" y="161.147" fill="#000" font-size="13" textLength="104.336" font-family="'Segoe UI'">Modifier une offre</text></g><!--entity UC_close--><g class="entity" data-qualified-name="Espace recruteur.UC_close" id="ent0007" data-source-line="13"><ellipse cx="245.722" cy="217.126" rx="84.222" ry="26.674" fill="#EEF2FA" style="stroke:#132B64;stroke-width:0.5;"/><text x="194.661" y="212.505" fill="#000" font-size="13" textLength="102.121" font-family="'Segoe UI'">Clôturer une offre</text><text x="186.4" y="229.796" fill="#000" font-size="13" textLength="118.644" font-family="'Segoe UI'">(garde les candidats)</text></g><!--entity UC_delete--><g class="entity" data-qualified-name="Espace recruteur.UC_delete" id="ent0008" data-source-line="14"><ellipse cx="245.642" cy="288.01" rx="81.642" ry="26.559" fill="#EEF2FA" style="stroke:#132B64;stroke-width:0.5;"/><text x="187.922" y="285.8" fill="#000" font-size="13" textLength="115.438" font-family="'Segoe UI'">Supprimer une offre</text><text x="197.295" y="303.091" fill="#000" font-size="13" textLength="96.694" font-family="'Segoe UI'">sans candidature</text></g><!--entity UC_apps--><g class="entity" data-qualified-name="Espace recruteur.UC_apps" id="ent0009" data-source-line="15"><ellipse cx="245.498" cy="352.851" rx="89.998" ry="20.4" fill="#EEF2FA" style="stroke:#132B64;stroke-width:0.5;"/><text x="169.999" y="357.996" fill="#000" font-size="13" textLength="150.998" font-family="'Segoe UI'">Consulter les candidatures</text></g><!--entity UC_docs--><g class="entity" data-qualified-name="Espace recruteur.UC_docs" id="ent0010" data-source-line="16"><ellipse cx="245.487" cy="434.749" rx="60.987" ry="25.798" fill="#EEF2FA" style="stroke:#132B64;stroke-width:0.5;"/><text x="201.507" y="433.682" fill="#000" font-size="13" textLength="87.959" font-family="'Segoe UI'">Consulter le CV</text><text x="216.405" y="450.973" fill="#000" font-size="13" textLength="58.164" font-family="'Segoe UI'">et la lettre</text></g><!--entity UC_accept--><g class="entity" data-qualified-name="Espace recruteur.UC_accept" id="ent0011" data-source-line="17"><ellipse cx="245.508" cy="504.842" rx="80.008" ry="25.891" fill="#EEF2FA" style="stroke:#132B64;stroke-width:0.5;"/><text x="205.626" y="499.051" fill="#000" font-size="13" textLength="79.765" font-family="'Segoe UI'">Accepter avec</text><text x="187.339" y="516.342" fill="#000" font-size="13" textLength="116.34" font-family="'Segoe UI'">une date d'entretien</text></g><!--entity UC_reject--><g class="entity" data-qualified-name="Espace recruteur.UC_reject" id="ent0012" data-source-line="18"><ellipse cx="245.601" cy="568.871" rx="85.101" ry="19.42" fill="#EEF2FA" style="stroke:#132B64;stroke-width:0.5;"/><text x="175.802" y="574.017" fill="#000" font-size="13" textLength="139.598" font-family="'Segoe UI'">Refuser une candidature</text></g><!--entity UC_eval--><g class="entity" data-qualified-name="Espace recruteur.UC_eval" id="ent0013" data-source-line="19"><ellipse cx="245.622" cy="633.149" rx="92.122" ry="26.697" fill="#EEF2FA" style="stroke:#132B64;stroke-width:0.5;"/><text x="189.356" y="628.562" fill="#000" font-size="13" textLength="112.531" font-family="'Segoe UI'">Évaluer un candidat</text><text x="180.593" y="645.853" fill="#000" font-size="13" textLength="130.057" font-family="'Segoe UI'">(4 critères, 3 contrôles)</text></g><!--entity UC_stats--><g class="entity" data-qualified-name="Espace recruteur.UC_stats" id="ent0014" data-source-line="20"><ellipse cx="245.555" cy="697.062" rx="86.055" ry="19.611" fill="#EEF2FA" style="stroke:#132B64;stroke-width:0.5;"/><text x="174.636" y="702.208" fill="#000" font-size="13" textLength="141.838" font-family="'Segoe UI'">Consulter les statistiques</text></g><!--entity UC_profile--><g class="entity" data-qualified-name="Espace recruteur.UC_profile" id="ent0015" data-source-line="21"><ellipse cx="245.575" cy="755.866" rx="92.575" ry="20.915" fill="#EEF2FA" style="stroke:#132B64;stroke-width:0.5;"/><text x="167.121" y="761.012" fill="#000" font-size="13" textLength="156.908" font-family="'Segoe UI'">Modifier le profil entreprise</text></g><!--entity UC_import--><g class="entity" data-qualified-name="Espace recruteur.UC_import" id="ent0016" data-source-line="22"><ellipse cx="245.574" cy="840.111" rx="74.574" ry="27.159" fill="#EEF2FA" style="stroke:#132B64;stroke-width:0.5;"/><text x="196.887" y="836.193" fill="#000" font-size="13" textLength="97.373" font-family="'Segoe UI'">Importer le profil</text><text x="194.348" y="853.484" fill="#000" font-size="13" textLength="102.451" font-family="'Segoe UI'">depuis le site web</text></g><!--entity UC_draft--><g class="entity" data-qualified-name="Espace recruteur.UC_draft" id="ent0017" data-source-line="23"><ellipse cx="245.496" cy="910.828" rx="93.496" ry="25.877" fill="#EEF2FA" style="stroke:#132B64;stroke-width:0.5;"/><text x="177.097" y="909.64" fill="#000" font-size="13" textLength="136.798" font-family="'Segoe UI'">Rédiger une description</text><text x="198.844" y="926.931" fill="#000" font-size="13" textLength="93.304" font-family="'Segoe UI'">à partir du profil</text></g><g class="link" data-entity-1="ent0001" data-entity-2="ent0005" id="lnk18" data-link-type="dependency"><polygon points="177.945,112.781,168.237,111.123,173.099,114.013,170.209,118.876,177.945,112.781" fill="#132B64" style="stroke:#132B64;stroke-width:1;stroke-linejoin:miter;stroke-miterlimit:10;"/><path d="M37.737,337.03 C44.121,279.846 65.368,175.036 136,129.951 C148.546,121.943 158.516,117.723 173.099,114.013" style="stroke:#132B64;stroke-width:1;" fill="none"/></g><g class="link" data-entity-1="ent0001" data-entity-2="ent0006" id="lnk19" data-link-type="dependency"><polygon points="174.219,163.715,164.478,162.264,169.401,165.05,166.614,169.973,174.219,163.715" fill="#132B64" style="stroke:#132B64;stroke-width:1;stroke-linejoin:miter;stroke-miterlimit:10;"/><path d="M43.649,337.428 C55.964,292.167 83.167,218.495 136,180.951 C147.266,172.945 155.885,168.797 169.401,165.05" style="stroke:#132B64;stroke-width:1;" fill="none"/></g><g class="link" data-entity-1="ent0001" data-entity-2="ent0007" id="lnk20" data-link-type="dependency"><polygon points="161.265,238.225,151.416,238.159,156.682,240.225,154.616,245.491,161.265,238.225" fill="#132B64" style="stroke:#132B64;stroke-width:1;stroke-linejoin:miter;stroke-miterlimit:10;"/><path d="M57.885,337.32 C75.936,309.92 103.452,274.202 136,251.951 C143.761,246.645 147.795,244.104 156.682,240.225" style="stroke:#132B64;stroke-width:1;" fill="none"/></g><g class="link" data-entity-1="ent0001" data-entity-2="ent0008" id="lnk21" data-link-type="dependency"><polygon points="163.942,312.229,154.123,311.462,159.229,313.898,156.794,319.003,163.942,312.229" fill="#132B64" style="stroke:#132B64;stroke-width:1;stroke-linejoin:miter;stroke-miterlimit:10;"/><path d="M62.249,360.02 C82.232,348.744 110.257,333.764 136,322.951 C144.942,319.195 149.722,317.264 159.229,313.898" style="stroke:#132B64;stroke-width:1;" fill="none"/></g><g class="link" data-entity-1="ent0001" data-entity-2="ent0009" id="lnk22" data-link-type="dependency"><polygon points="177.72,373.521,167.871,373.594,173.166,375.586,171.174,380.88,177.72,373.521" fill="#132B64" style="stroke:#132B64;stroke-width:1;stroke-linejoin:miter;stroke-miterlimit:10;"/><path d="M62.005,404.57 C67.519,408.819 73.607,412.566 80,414.951 C99.988,422.407 109.707,425.927 128,414.951 C134.479,411.064 130.445,405.073 136,399.951 C147.923,388.959 158.266,382.339 173.166,375.586" style="stroke:#132B64;stroke-width:1;" fill="none"/></g><g class="link" data-entity-1="ent0001" data-entity-2="ent0013" id="lnk23" data-link-type="dependency"><polygon points="153.355,610.188,147.477,602.286,148.999,607.734,143.551,609.256,153.355,610.188" fill="#132B64" style="stroke:#132B64;stroke-width:1;stroke-linejoin:miter;stroke-miterlimit:10;"/><path d="M42.519,414.603 C54.104,463.99 80.997,548.932 136,597.951 C141.246,602.626 142.766,604.223 148.999,607.734" style="stroke:#132B64;stroke-width:1;" fill="none"/></g><g class="link" data-entity-1="ent0001" data-entity-2="ent0014" id="lnk24" data-link-type="dependency"><polygon points="159.433,708.597,149.588,708.876,154.923,710.756,153.043,716.092,159.433,708.597" fill="#132B64" style="stroke:#132B64;stroke-width:1;stroke-linejoin:miter;stroke-miterlimit:10;"/><path d="M36.251,414.508 C39.859,513.508 51.874,770.678 80,795.951 C95.868,810.21 112.082,810.154 128,795.951 C139.683,785.528 125.774,737.807 136,725.951 C142.431,718.495 146.037,715.011 154.923,710.756" style="stroke:#132B64;stroke-width:1;" fill="none"/></g><g class="link" data-entity-1="ent0001" data-entity-2="ent0015" id="lnk25" data-link-type="dependency"><polygon points="190.323,777.049,180.475,776.943,185.733,779.03,183.645,784.288,190.323,777.049" fill="#132B64" style="stroke:#132B64;stroke-width:1;stroke-linejoin:miter;stroke-miterlimit:10;"/><path d="M36.115,414.68 C39.433,516.142 50.886,783.7 80,809.951 C95.844,824.237 107.761,816.697 128,809.951 C132.216,808.546 132.165,806.198 136,803.951 C153.061,793.955 167.993,786.687 185.733,779.03" style="stroke:#132B64;stroke-width:1;" fill="none"/></g><g class="link" data-entity-1="ent0010" data-entity-2="ent0009" id="lnk26" data-link-type="dependency"><polygon points="245.5,373.579,241.5,382.579,245.5,378.579,249.5,382.579,245.5,373.579" fill="#132B64" style="stroke:#132B64;stroke-width:1;stroke-linejoin:miter;stroke-miterlimit:10;"/><path d="M245.5,408.554 C245.5,397.224 245.5,389.183 245.5,378.579" style="stroke:#132B64;stroke-width:1;stroke-dasharray:7,7;" fill="none"/><text x="211.5" y="396.071" fill="#000" font-size="11" textLength="44.113" font-family="'Segoe UI'">«extend»</text></g><g class="link" data-entity-1="ent0011" data-entity-2="ent0009" id="lnk27" data-link-type="dependency"><polygon points="155.384,346.803,145.856,344.31,150.449,347.611,147.148,352.205,155.384,346.803" fill="#132B64" style="stroke:#132B64;stroke-width:1;stroke-linejoin:miter;stroke-miterlimit:10;"/><path d="M165.345,488.446 C154.639,483.746 144.457,477.708 136,469.951 C102.441,439.17 73.121,407.316 103,372.951 C116.277,357.681 130.484,350.879 150.449,347.611" style="stroke:#132B64;stroke-width:1;stroke-dasharray:7,7;" fill="none"/><text x="82" y="386.821" fill="#000" font-size="11" textLength="44.113" font-family="'Segoe UI'">«extend»</text></g><g class="link" data-entity-1="ent0012" data-entity-2="ent0009" id="lnk28" data-link-type="dependency"><polygon points="155.377,361.849,145.589,360.751,150.61,363.357,148.003,368.378,155.377,361.849" fill="#132B64" style="stroke:#132B64;stroke-width:1;stroke-linejoin:miter;stroke-miterlimit:10;"/><path d="M160.388,556.363 C151.352,552.263 142.943,546.914 136,539.951 C89.636,493.46 63.848,448.66 103,395.951 C115.712,378.837 130.263,369.796 150.61,363.357" style="stroke:#132B64;stroke-width:1;stroke-dasharray:7,7;" fill="none"/><text x="82" y="409.821" fill="#000" font-size="11" textLength="44.113" font-family="'Segoe UI'">«extend»</text></g><g class="link" data-entity-1="ent0016" data-entity-2="ent0015" id="lnk29" data-link-type="dependency"><polygon points="245.5,777.082,241.5,786.082,245.5,782.082,249.5,786.082,245.5,777.082" fill="#132B64" style="stroke:#132B64;stroke-width:1;stroke-linejoin:miter;stroke-miterlimit:10;"/><path d="M245.5,812.911 C245.5,801.304 245.5,792.944 245.5,782.082" style="stroke:#132B64;stroke-width:1;stroke-dasharray:7,7;" fill="none"/><text x="211.5" y="799.821" fill="#000" font-size="11" textLength="44.113" font-family="'Segoe UI'">«extend»</text></g><g class="link" data-entity-1="ent0017" data-entity-2="ent0015" id="lnk30" data-link-type="dependency"><polygon points="152.745,750.947,143.156,748.702,147.834,751.883,144.653,756.561,152.745,750.947" fill="#132B64" style="stroke:#132B64;stroke-width:1;stroke-linejoin:miter;stroke-miterlimit:10;"/><path d="M151.994,887.729 C146.241,884.326 140.834,880.424 136,875.951 C101.958,844.451 72.689,812.056 103,776.951 C115.666,762.282 128.811,755.506 147.834,751.883" style="stroke:#132B64;stroke-width:1;stroke-dasharray:7,7;" fill="none"/><text x="82" y="790.821" fill="#000" font-size="11" textLength="44.113" font-family="'Segoe UI'">«extend»</text></g><g class="link" data-entity-1="ent0016" data-entity-2="ent0002" id="lnk31" data-link-type="dependency"><polygon points="381.969,864.657,373.833,859.107,377.05,863.76,372.398,866.977,381.969,864.657" fill="#132B64" style="stroke:#132B64;stroke-width:1;stroke-linejoin:miter;stroke-miterlimit:10;"/><path d="M320.089,853.372 C341.989,857.366 359.798,860.613 377.05,863.76" style="stroke:#132B64;stroke-width:1;" fill="none"/></g><g class="link" data-entity-1="ent0017" data-entity-2="ent0002" id="lnk32" data-link-type="dependency"><polygon points="381.928,877.197,372.228,875.492,377.076,878.406,374.163,883.255,381.928,877.197" fill="#132B64" style="stroke:#132B64;stroke-width:1;stroke-linejoin:miter;stroke-miterlimit:10;"/><path d="M339.326,887.815 C354.776,883.964 364.869,881.449 377.076,878.406" style="stroke:#132B64;stroke-width:1;" fill="none"/></g><g class="link" data-entity-1="ent0002" data-entity-2="ent0003" id="lnk33" data-link-type="dependency"><polygon points="565.997,869.951,556.997,865.951,560.997,869.951,556.997,873.951,565.997,869.951" fill="#132B64" style="stroke:#132B64;stroke-width:1;stroke-linejoin:miter;stroke-miterlimit:10;"/><path d="M442.313,869.951 C475.319,869.951 524.143,869.951 560.997,869.951" style="stroke:#132B64;stroke-width:1;" fill="none"/><text x="462" y="850.821" fill="#000" font-size="11" textLength="84.912" font-family="'Segoe UI'">lecture des pages</text><text x="480.651" y="865.452" fill="#000" font-size="11" textLength="47.609" font-family="'Segoe UI'">publiques</text></g><?plantuml-src VLJDZjCm4BxdAMPxMP3OlS09hIfL5OSUa51Ni9T8AwypoHevjh77XGhn0Bm5HxZl6_J562Ufaq2tbweUVz_yVFCv5ywBfXMWnTv6Wj0Y2IEA2sMaZXN2VQ2znciNMrreh0d8WbVD8q6bF4fIrXIaI2DiHLqhWoqQliC0KWIeBYCfhO98EAWYR57wI1XzKGX9riCYHnR0XEqnV8j-foJ2PjN5DokukGdxG8VVBIwN6QK8uIi-b8PRrPTSsgFpAc17kfjpYjIlC0ttkdWNdE3iVYp-lG280RbhlluG7xH23z4WsBhsVRwFwtkNBiBZ5FlULge-2SPAqHIvreSdYduABSsBHlZKVAUOgLGbABmyPf3Q1fock8sEvsldAO8m8pcEzIlKI3FwsfeGDJ5zMeyfuSWHpeNd6B3-L1eazWeVY2Q5h9oHLbAYInonGrcQr2gNuPz-GwJGv7eTT4hUOit_-m5F3ENnCwznIZZyt0aTEqOciAvlG7h5k-VXNi5ha9PB7vvuxgmkCkzvTGAnQmEfBt5K9yN2oUMpEixRMcdunuJ9DDt5R16RrbbFKrwoi8igf4WOR7rCe3hqJAJ3dqerWqhysdXKbzvOQGw_m0bFogVdrgVEQ_AYfk97KMpXwcevjNCET9RDfzv--JZuAPyxhupKf6O-zKgDXGO9Yi4jS9qpm5j-flYDq5JyIBCbpY5w3vn3z8eDYA7uVw1EZtEOIQOqnsOrieOpVvVIlplcQMw9VTfz-vneC9IcapVvvoy0?></g></svg>