<svg xmlns="http://www.w3.org/2000/svg" xmlns:xlink="http://www.w3.org/1999/xlink" version="1.1" data-diagram-type="CLASS" style="width:979px;height:884px;background:#FFFFFF;" width="979px" height="884px" viewBox="0 0 979 884" zoomAndPan="magnify" preserveAspectRatio="none" contentStyleType="text/css"><?plantuml 1.2026.8?><defs/><g font-family="sans-serif" lengthAdjust="spacing"><g class="title" data-source-line="4"><text x="325.238" y="26.187" fill="#000" font-size="15" textLength="322.214" font-weight="700" font-family="'Segoe UI'">Diagramme de classes : offres et candidatures</text></g><!--class OfferStatus--><g class="entity" data-qualified-name="OfferStatus" id="ent0001" data-source-line="6"><rect x="24" y="69.951" width="94.46" height="72.582" fill="#FFF" style="stroke:#132B64;stroke-width:0.5;" rx="4" ry="4"/><rect x="24" y="69.951" width="94.46" height="30" fill="#EEF2FA" style="stroke:#EEF2FA;stroke-width:0.5;" rx="4" ry="4"/><rect x="24" y="95.951" width="94.46" height="4" fill="#EEF2FA" style="stroke:#EEF2FA;stroke-width:0.5;"/><rect x="24" y="69.951" width="94.46" height="72.582" fill="none" style="stroke:#132B64;stroke-width:0.5;" rx="4" ry="4"/><ellipse cx="38" cy="84.951" rx="10" ry="10" fill="#EB937F" style="stroke:#181818;stroke-width:1;"/><path d="M37.063,85.732 L37.063,87.654 L40.391,87.654 L40.391,86.951 Q40.391,86.482 40.563,86.279 Q40.75,86.076 41.031,86.076 Q41.328,86.076 41.5,86.279 Q41.688,86.482 41.688,86.951 L41.688,88.951 L35.563,88.951 Q35.094,88.951 34.891,88.779 Q34.688,88.592 34.688,88.295 Q34.688,88.014 34.891,87.842 Q35.094,87.654 35.563,87.654 L35.766,87.654 L35.766,82.561 L35.563,82.561 Q35.094,82.561 34.891,82.389 Q34.688,82.201 34.688,81.904 Q34.688,81.607 34.891,81.436 Q35.094,81.248 35.563,81.248 L41.406,81.264 L41.406,83.232 Q41.406,83.701 41.219,83.904 Q41.047,84.107 40.75,84.107 Q40.453,84.107 40.266,83.904 Q40.094,83.701 40.094,83.232 L40.094,82.561 L37.063,82.561 L37.063,84.436 L38.203,84.436 Q38.203,83.936 38.297,83.779 Q38.5,83.467 38.859,83.467 Q39.141,83.467 39.328,83.67 Q39.516,83.873 39.516,84.342 L39.516,85.842 Q39.516,86.264 39.406,86.404 Q39.203,86.717 38.859,86.717 Q38.5,86.717 38.297,86.404 Q38.203,86.248 38.203,85.732 L37.063,85.732 Z " fill="#000"/><text x="51" y="90.334" fill="#000" font-size="13" textLength="64.46" font-family="'Segoe UI'">OfferStatus</text><line x1="25" y1="99.951" x2="117.46" y2="99.951" style="stroke:#132B64;stroke-width:0.5;"/><text x="30" y="117.979" fill="#000" font-size="13" textLength="33.382" font-family="'Segoe UI'">OPEN</text><text x="30" y="135.271" fill="#000" font-size="13" textLength="46.566" font-family="'Segoe UI'">CLOSED</text></g><!--class ContractType--><g class="entity" data-qualified-name="ContractType" id="ent0002" data-source-line="11"><rect x="136.5" y="52.951" width="106.515" height="107.164" fill="#FFF" style="stroke:#132B64;stroke-width:0.5;" rx="4" ry="4"/><rect x="136.5" y="52.951" width="106.515" height="30" fill="#EEF2FA" style="stroke:#EEF2FA;stroke-width:0.5;" rx="4" ry="4"/><rect x="136.5" y="78.951" width="106.515" height="4" fill="#EEF2FA" style="stroke:#EEF2FA;stroke-width:0.5;"/><rect x="136.5" y="52.951" width="106.515" height="107.164" fill="none" style="stroke:#132B64;stroke-width:0.5;" rx="4" ry="4"/><ellipse cx="150.5" cy="67.951" rx="10" ry="10" fill="#EB937F" style="stroke:#181818;stroke-width:1;"/><path d="M149.563,68.732 L149.563,70.654 L152.891,70.654 L152.891,69.951 Q152.891,69.482 153.063,69.279 Q153.25,69.076 153.531,69.076 Q153.828,69.076 154,69.279 Q154.188,69.482 154.188,69.951 L154.188,71.951 L148.063,71.951 Q147.594,71.951 147.391,71.779 Q147.188,71.592 147.188,71.295 Q147.188,71.014 147.391,70.842 Q147.594,70.654 148.063,70.654 L148.266,70.654 L148.266,65.561 L148.063,65.561 Q147.594,65.561 147.391,65.389 Q147.188,65.201 147.188,64.904 Q147.188,64.607 147.391,64.436 Q147.594,64.248 148.063,64.248 L153.906,64.264 L153.906,66.232 Q153.906,66.701 153.719,66.904 Q153.547,67.107 153.25,67.107 Q152.953,67.107 152.766,66.904 Q152.594,66.701 152.594,66.232 L152.594,65.561 L149.563,65.561 L149.563,67.436 L150.703,67.436 Q150.703,66.936 150.797,66.779 Q151,66.467 151.359,66.467 Q151.641,66.467 151.828,66.67 Q152.016,66.873 152.016,67.342 L152.016,68.842 Q152.016,69.264 151.906,69.404 Q151.703,69.717 151.359,69.717 Q151,69.717 150.797,69.404 Q150.703,69.248 150.703,68.732 L149.563,68.732 Z " fill="#000"/><text x="163.5" y="73.334" fill="#000" font-size="13" textLength="76.515" font-family="'Segoe UI'">ContractType</text><line x1="137.5" y1="82.951" x2="242.015" y2="82.951" style="stroke:#132B64;stroke-width:0.5;"/><text x="142.5" y="100.979" fill="#000" font-size="13" textLength="20.624" font-family="'Segoe UI'">CDI</text><text x="142.5" y="118.271" fill="#000" font-size="13" textLength="26.279" font-family="'Segoe UI'">CDD</text><text x="142.5" y="135.562" fill="#000" font-size="13" textLength="37.597" font-family="'Segoe UI'">STAGE</text><text x="142.5" y="152.853" fill="#000" font-size="13" textLength="66.13" font-family="'Segoe UI'">FREELANCE</text></g><!--class ApplicationStatus--><g class="entity" data-qualified-name="ApplicationStatus" id="ent0003" data-source-line="18"><rect x="6" y="265.951" width="130.318" height="89.873" fill="#FFF" style="stroke:#132B64;stroke-width:0.5;" rx="4" ry="4"/><rect x="6" y="265.951" width="130.318" height="30" fill="#EEF2FA" style="stroke:#EEF2FA;stroke-width:0.5;" rx="4" ry="4"/><rect x="6" y="291.951" width="130.318" height="4" fill="#EEF2FA" style="stroke:#EEF2FA;stroke-width:0.5;"/><rect x="6" y="265.951" width="130.318" height="89.873" fill="none" style="stroke:#132B64;stroke-width:0.5;" rx="4" ry="4"/><ellipse cx="20" cy="280.951" rx="10" ry="10" fill="#EB937F" style="stroke:#181818;stroke-width:1;"/><path d="M19.063,281.732 L19.063,283.654 L22.391,283.654 L22.391,282.951 Q22.391,282.482 22.563,282.279 Q22.75,282.076 23.031,282.076 Q23.328,282.076 23.5,282.279 Q23.688,282.482 23.688,282.951 L23.688,284.951 L17.563,284.951 Q17.094,284.951 16.891,284.779 Q16.688,284.592 16.688,284.295 Q16.688,284.014 16.891,283.842 Q17.094,283.654 17.563,283.654 L17.766,283.654 L17.766,278.561 L17.563,278.561 Q17.094,278.561 16.891,278.389 Q16.688,278.201 16.688,277.904 Q16.688,277.607 16.891,277.436 Q17.094,277.248 17.563,277.248 L23.406,277.264 L23.406,279.232 Q23.406,279.701 23.219,279.904 Q23.047,280.107 22.75,280.107 Q22.453,280.107 22.266,279.904 Q22.094,279.701 22.094,279.232 L22.094,278.561 L19.063,278.561 L19.063,280.436 L20.203,280.436 Q20.203,279.936 20.297,279.779 Q20.5,279.467 20.859,279.467 Q21.141,279.467 21.328,279.67 Q21.516,279.873 21.516,280.342 L21.516,281.842 Q21.516,282.264 21.406,282.404 Q21.203,282.717 20.859,282.717 Q20.5,282.717 20.297,282.404 Q20.203,282.248 20.203,281.732 L19.063,281.732 Z " fill="#000"/><text x="33" y="286.334" fill="#000" font-size="13" textLength="100.318" font-family="'Segoe UI'">ApplicationStatus</text><line x1="7" y1="295.951" x2="135.318" y2="295.951" style="stroke:#132B64;stroke-width:0.5;"/><text x="12" y="313.979" fill="#000" font-size="13" textLength="54.799" font-family="'Segoe UI'">PENDING</text><text x="12" y="331.271" fill="#000" font-size="13" textLength="60.842" font-family="'Segoe UI'">ACCEPTED</text><text x="12" y="348.562" fill="#000" font-size="13" textLength="56.12" font-family="'Segoe UI'">REJECTED</text></g><!--class InterviewType--><g class="entity" data-qualified-name="InterviewType" id="ent0004" data-source-line="24"><rect x="154" y="274.451" width="109.65" height="72.582" fill="#FFF" style="stroke:#132B64;stroke-width:0.5;" rx="4" ry="4"/><rect x="154" y="274.451" width="109.65" height="30" fill="#EEF2FA" style="stroke:#EEF2FA;stroke-width:0.5;" rx="4" ry="4"/><rect x="154" y="300.451" width="109.65" height="4" fill="#EEF2FA" style="stroke:#EEF2FA;stroke-width:0.5;"/><rect x="154" y="274.451" width="109.65" height="72.582" fill="none" style="stroke:#132B64;stroke-width:0.5;" rx="4" ry="4"/><ellipse cx="168" cy="289.451" rx="10" ry="10" fill="#EB937F" style="stroke:#181818;stroke-width:1;"/><path d="M167.063,290.232 L167.063,292.154 L170.391,292.154 L170.391,291.451 Q170.391,290.982 170.563,290.779 Q170.75,290.576 171.031,290.576 Q171.328,290.576 171.5,290.779 Q171.688,290.982 171.688,291.451 L171.688,293.451 L165.563,293.451 Q165.094,293.451 164.891,293.279 Q164.688,293.092 164.688,292.795 Q164.688,292.514 164.891,292.342 Q165.094,292.154 165.563,292.154 L165.766,292.154 L165.766,287.061 L165.563,287.061 Q165.094,287.061 164.891,286.889 Q164.688,286.701 164.688,286.404 Q164.688,286.107 164.891,285.936 Q165.094,285.748 165.563,285.748 L171.406,285.764 L171.406,287.732 Q171.406,288.201 171.219,288.404 Q171.047,288.607 170.75,288.607 Q170.453,288.607 170.266,288.404 Q170.094,288.201 170.094,287.732 L170.094,287.061 L167.063,287.061 L167.063,288.936 L168.203,288.936 Q168.203,288.436 168.297,288.279 Q168.5,287.967 168.859,287.967 Q169.141,287.967 169.328,288.17 Q169.516,288.373 169.516,288.842 L169.516,290.342 Q169.516,290.764 169.406,290.904 Q169.203,291.217 168.859,291.217 Q168.5,291.217 168.297,290.904 Q168.203,290.748 168.203,290.232 L167.063,290.232 Z " fill="#000"/><text x="181" y="294.834" fill="#000" font-size="13" textLength="79.65" font-family="'Segoe UI'">InterviewType</text><line x1="155" y1="304.451" x2="262.65" y2="304.451" style="stroke:#132B64;stroke-width:0.5;"/><text x="160" y="322.479" fill="#000" font-size="13" textLength="43.278" font-family="'Segoe UI'">ONSITE</text><text x="160" y="339.771" fill="#000" font-size="13" textLength="49.213" font-family="'Segoe UI'">REMOTE</text></g><!--class User--><g class="entity" data-qualified-name="User" id="ent0005" data-source-line="29"><rect x="554" y="69.951" width="82.364" height="72.582" fill="#FFF" style="stroke:#132B64;stroke-width:0.5;" rx="4" ry="4"/><rect x="554" y="69.951" width="82.364" height="30" fill="#EEF2FA" style="stroke:#EEF2FA;stroke-width:0.5;" rx="4" ry="4"/><rect x="554" y="95.951" width="82.364" height="4" fill="#EEF2FA" style="stroke:#EEF2FA;stroke-width:0.5;"/><rect x="554" y="69.951" width="82.364" height="72.582" fill="none" style="stroke:#132B64;stroke-width:0.5;" rx="4" ry="4"/><ellipse cx="579.969" cy="84.951" rx="10" ry="10" fill="#ADD1B2" style="stroke:#181818;stroke-width:1;"/><path d="M580.907,81.592 Q581.032,81.42 581.173,81.342 Q581.313,81.264 581.485,81.264 Q581.766,81.264 581.938,81.467 Q582.126,81.654 582.126,82.123 L582.126,83.232 Q582.126,83.701 581.938,83.904 Q581.766,84.092 581.485,84.092 Q581.219,84.092 581.063,83.951 Q580.907,83.811 580.829,83.404 Q580.782,83.139 580.657,82.998 Q580.391,82.701 579.923,82.529 Q579.454,82.357 578.985,82.357 Q578.407,82.357 577.907,82.623 Q577.423,82.873 577.048,83.451 Q576.673,84.014 576.673,84.795 L576.673,85.639 Q576.673,86.576 577.36,87.217 Q578.048,87.842 579.251,87.842 Q579.985,87.842 580.485,87.639 Q580.766,87.529 581.094,87.186 Q581.298,86.982 581.407,86.936 Q581.532,86.873 581.673,86.873 Q581.938,86.873 582.126,87.076 Q582.329,87.264 582.329,87.529 Q582.329,87.795 582.063,88.107 Q581.673,88.545 581.063,88.795 Q580.251,89.139 579.266,89.139 Q578.11,89.139 577.173,88.67 Q576.423,88.279 575.891,87.467 Q575.376,86.639 575.376,85.67 L575.376,84.779 Q575.376,83.764 575.844,82.889 Q576.329,82.014 577.157,81.545 Q578.001,81.061 578.938,81.061 Q579.501,81.061 579.985,81.201 Q580.485,81.326 580.907,81.592 Z " fill="#000"/><text x="595.629" y="90.334" fill="#000" font-size="13" textLength="25.765" font-family="'Segoe UI'">User</text><line x1="555" y1="99.951" x2="635.364" y2="99.951" style="stroke:#132B64;stroke-width:0.5;"/><g data-visibility-modifier="PRIVATE_FIELD"><rect x="562" y="111.097" width="6" height="6" fill="none" style="stroke:#C82930;stroke-width:1;"/></g><text x="573" y="117.979" fill="#000" font-size="13" textLength="49.493" font-family="'Segoe UI'">id : Long</text><g data-visibility-modifier="PRIVATE_FIELD"><rect x="562" y="128.388" width="6" height="6" fill="none" style="stroke:#C82930;stroke-width:1;"/></g><text x="573" y="135.271" fill="#000" font-size="13" textLength="57.364" font-family="'Segoe UI'">role : Role</text></g><!--class JobOffer--><g class="entity" data-qualified-name="JobOffer" id="ent0006" data-source-line="34"><rect x="404" y="213.951" width="188.389" height="193.619" fill="#FFF" style="stroke:#132B64;stroke-width:0.5;" rx="4" ry="4"/><rect x="404" y="213.951" width="188.389" height="30" fill="#EEF2FA" style="stroke:#EEF2FA;stroke-width:0.5;" rx="4" ry="4"/><rect x="404" y="239.951" width="188.389" height="4" fill="#EEF2FA" style="stroke:#EEF2FA;stroke-width:0.5;"/><rect x="404" y="213.951" width="188.389" height="193.619" fill="none" style="stroke:#132B64;stroke-width:0.5;" rx="4" ry="4"/><ellipse cx="469.616" cy="228.951" rx="10" ry="10" fill="#ADD1B2" style="stroke:#181818;stroke-width:1;"/><path d="M470.554,225.592 Q470.679,225.42 470.819,225.342 Q470.96,225.264 471.132,225.264 Q471.413,225.264 471.585,225.467 Q471.772,225.654 471.772,226.123 L471.772,227.232 Q471.772,227.701 471.585,227.904 Q471.413,228.092 471.132,228.092 Q470.866,228.092 470.71,227.951 Q470.554,227.811 470.476,227.404 Q470.429,227.139 470.304,226.998 Q470.038,226.701 469.569,226.529 Q469.101,226.357 468.632,226.357 Q468.054,226.357 467.554,226.623 Q467.069,226.873 466.694,227.451 Q466.319,228.014 466.319,228.795 L466.319,229.639 Q466.319,230.576 467.007,231.217 Q467.694,231.842 468.897,231.842 Q469.632,231.842 470.132,231.639 Q470.413,231.529 470.741,231.186 Q470.944,230.982 471.054,230.936 Q471.179,230.873 471.319,230.873 Q471.585,230.873 471.772,231.076 Q471.976,231.264 471.976,231.529 Q471.976,231.795 471.71,232.107 Q471.319,232.545 470.71,232.795 Q469.897,233.139 468.913,233.139 Q467.757,233.139 466.819,232.67 Q466.069,232.279 465.538,231.467 Q465.022,230.639 465.022,229.67 L465.022,228.779 Q465.022,227.764 465.491,226.889 Q465.976,226.014 466.804,225.545 Q467.647,225.061 468.585,225.061 Q469.147,225.061 469.632,225.201 Q470.132,225.326 470.554,225.592 Z " fill="#000"/><text x="488.616" y="234.334" fill="#000" font-size="13" textLength="49.156" font-family="'Segoe UI'">JobOffer</text><line x1="405" y1="243.951" x2="591.389" y2="243.951" style="stroke:#132B64;stroke-width:0.5;"/><g data-visibility-modifier="PRIVATE_FIELD"><rect x="412" y="255.097" width="6" height="6" fill="none" style="stroke:#C82930;stroke-width:1;"/></g><text x="423" y="261.979" fill="#000" font-size="13" textLength="49.493" font-family="'Segoe UI'">id : Long</text><g data-visibility-modifier="PRIVATE_FIELD"><rect x="412" y="272.388" width="6" height="6" fill="none" style="stroke:#C82930;stroke-width:1;"/></g><text x="423" y="279.271" fill="#000" font-size="13" textLength="65.838" font-family="'Segoe UI'">title : String</text><g data-visibility-modifier="PRIVATE_FIELD"><rect x="412" y="289.679" width="6" height="6" fill="none" style="stroke:#C82930;stroke-width:1;"/></g><text x="423" y="296.562" fill="#000" font-size="13" textLength="107.745" font-family="'Segoe UI'">description : String</text><g data-visibility-modifier="PRIVATE_FIELD"><rect x="412" y="306.97" width="6" height="6" fill="none" style="stroke:#C82930;stroke-width:1;"/></g><text x="423" y="313.853" fill="#000" font-size="13" textLength="89.845" font-family="'Segoe UI'">location : String</text><g data-visibility-modifier="PRIVATE_FIELD"><rect x="412" y="324.261" width="6" height="6" fill="none" style="stroke:#C82930;stroke-width:1;"/></g><text x="423" y="331.144" fill="#000" font-size="13" textLength="160.926" font-family="'Segoe UI'">contractType : ContractType</text><g data-visibility-modifier="PRIVATE_FIELD"><rect x="412" y="341.552" width="6" height="6" fill="none" style="stroke:#C82930;stroke-width:1;"/></g><text x="423" y="348.435" fill="#000" font-size="13" textLength="163.389" font-family="'Segoe UI'">publishedAt : LocalDateTime</text><g data-visibility-modifier="PRIVATE_FIELD"><rect x="412" y="358.843" width="6" height="6" fill="none" style="stroke:#C82930;stroke-width:1;"/></g><text x="423" y="365.726" fill="#000" font-size="13" textLength="115.553" font-family="'Segoe UI'">deadline : LocalDate</text><g data-visibility-modifier="PRIVATE_FIELD"><rect x="412" y="376.134" width="6" height="6" fill="none" style="stroke:#C82930;stroke-width:1;"/></g><text x="423" y="383.017" fill="#000" font-size="13" textLength="108.215" font-family="'Segoe UI'">status : OfferStatus</text><g data-visibility-modifier="PRIVATE_FIELD"><rect x="412" y="393.425" width="6" height="6" fill="none" style="stroke:#C82930;stroke-width:1;"/></g><text x="423" y="400.308" fill="#000" font-size="13" textLength="143.863" font-family="'Segoe UI'">closedAt : LocalDateTime</text></g><!--class Application--><g class="entity" data-qualified-name="Application" id="ent0007" data-source-line="46"><rect x="530" y="461.951" width="198.063" height="141.746" fill="#FFF" style="stroke:#132B64;stroke-width:0.5;" rx="4" ry="4"/><rect x="530" y="461.951" width="198.063" height="30" fill="#EEF2FA" style="stroke:#EEF2FA;stroke-width:0.5;" rx="4" ry="4"/><rect x="530" y="487.951" width="198.063" height="4" fill="#EEF2FA" style="stroke:#EEF2FA;stroke-width:0.5;"/><rect x="530" y="461.951" width="198.063" height="141.746" fill="none" style="stroke:#132B64;stroke-width:0.5;" rx="4" ry="4"/><ellipse cx="592.474" cy="476.951" rx="10" ry="10" fill="#ADD1B2" style="stroke:#181818;stroke-width:1;"/><path d="M593.412,473.592 Q593.537,473.42 593.677,473.342 Q593.818,473.264 593.99,473.264 Q594.271,473.264 594.443,473.467 Q594.63,473.654 594.63,474.123 L594.63,475.232 Q594.63,475.701 594.443,475.904 Q594.271,476.092 593.99,476.092 Q593.724,476.092 593.568,475.951 Q593.412,475.811 593.333,475.404 Q593.287,475.139 593.162,474.998 Q592.896,474.701 592.427,474.529 Q591.958,474.357 591.49,474.357 Q590.912,474.357 590.412,474.623 Q589.927,474.873 589.552,475.451 Q589.177,476.014 589.177,476.795 L589.177,477.639 Q589.177,478.576 589.865,479.217 Q590.552,479.842 591.755,479.842 Q592.49,479.842 592.99,479.639 Q593.271,479.529 593.599,479.186 Q593.802,478.982 593.912,478.936 Q594.037,478.873 594.177,478.873 Q594.443,478.873 594.63,479.076 Q594.833,479.264 594.833,479.529 Q594.833,479.795 594.568,480.107 Q594.177,480.545 593.568,480.795 Q592.755,481.139 591.771,481.139 Q590.615,481.139 589.677,480.67 Q588.927,480.279 588.396,479.467 Q587.88,478.639 587.88,477.67 L587.88,476.779 Q587.88,475.764 588.349,474.889 Q588.833,474.014 589.662,473.545 Q590.505,473.061 591.443,473.061 Q592.005,473.061 592.49,473.201 Q592.99,473.326 593.412,473.592 Z " fill="#000"/><text x="611.474" y="482.334" fill="#000" font-size="13" textLength="65.114" font-family="'Segoe UI'">Application</text><line x1="531" y1="491.951" x2="727.063" y2="491.951" style="stroke:#132B64;stroke-width:0.5;"/><g data-visibility-modifier="PRIVATE_FIELD"><rect x="538" y="503.097" width="6" height="6" fill="none" style="stroke:#C82930;stroke-width:1;"/></g><text x="549" y="509.979" fill="#000" font-size="13" textLength="49.493" font-family="'Segoe UI'">id : Long</text><g data-visibility-modifier="PRIVATE_FIELD"><rect x="538" y="520.388" width="6" height="6" fill="none" style="stroke:#C82930;stroke-width:1;"/></g><text x="549" y="527.271" fill="#000" font-size="13" textLength="156.654" font-family="'Segoe UI'">applicationDate : LocalDate</text><g data-visibility-modifier="PRIVATE_FIELD"><rect x="538" y="537.679" width="6" height="6" fill="none" style="stroke:#C82930;stroke-width:1;"/></g><text x="549" y="544.562" fill="#000" font-size="13" textLength="144.073" font-family="'Segoe UI'">status : ApplicationStatus</text><g data-visibility-modifier="PRIVATE_FIELD"><rect x="538" y="554.97" width="6" height="6" fill="none" style="stroke:#C82930;stroke-width:1;"/></g><text x="549" y="561.853" fill="#000" font-size="13" textLength="108.145" font-family="'Segoe UI'">coverLetter : String</text><g data-visibility-modifier="PRIVATE_FIELD"><rect x="538" y="572.261" width="6" height="6" fill="none" style="stroke:#C82930;stroke-width:1;"/></g><text x="549" y="579.144" fill="#000" font-size="13" textLength="173.063" font-family="'Segoe UI'">interviewDate : LocalDateTime</text><g data-visibility-modifier="PRIVATE_FIELD"><rect x="538" y="589.552" width="6" height="6" fill="none" style="stroke:#C82930;stroke-width:1;"/></g><text x="549" y="596.435" fill="#000" font-size="13" textLength="128.775" font-family="'Segoe UI'">interviewLetter : String</text></g><!--class ApplicationEvaluation--><g class="entity" data-qualified-name="ApplicationEvaluation" id="ent0008" data-source-line="55"><rect x="682" y="657.951" width="193.93" height="210.91" fill="#FFF" style="stroke:#132B64;stroke-width:0.5;" rx="4" ry="4"/><rect x="682" y="657.951" width="193.93" height="30" fill="#EEF2FA" style="stroke:#EEF2FA;stroke-width:0.5;" rx="4" ry="4"/><rect x="682" y="683.951" width="193.93" height="4" fill="#EEF2FA" style="stroke:#EEF2FA;stroke-width:0.5;"/><rect x="682" y="657.951" width="193.93" height="210.91" fill="none" style="stroke:#132B64;stroke-width:0.5;" rx="4" ry="4"/><ellipse cx="713.888" cy="672.951" rx="10" ry="10" fill="#ADD1B2" style="stroke:#181818;stroke-width:1;"/><path d="M714.825,669.592 Q714.95,669.42 715.091,669.342 Q715.232,669.264 715.404,669.264 Q715.685,669.264 715.857,669.467 Q716.044,669.654 716.044,670.123 L716.044,671.232 Q716.044,671.701 715.857,671.904 Q715.685,672.092 715.404,672.092 Q715.138,672.092 714.982,671.951 Q714.825,671.811 714.747,671.404 Q714.7,671.139 714.575,670.998 Q714.31,670.701 713.841,670.529 Q713.372,670.357 712.904,670.357 Q712.325,670.357 711.825,670.623 Q711.341,670.873 710.966,671.451 Q710.591,672.014 710.591,672.795 L710.591,673.639 Q710.591,674.576 711.279,675.217 Q711.966,675.842 713.169,675.842 Q713.904,675.842 714.404,675.639 Q714.685,675.529 715.013,675.186 Q715.216,674.982 715.325,674.936 Q715.45,674.873 715.591,674.873 Q715.857,674.873 716.044,675.076 Q716.247,675.264 716.247,675.529 Q716.247,675.795 715.982,676.107 Q715.591,676.545 714.982,676.795 Q714.169,677.139 713.185,677.139 Q712.029,677.139 711.091,676.67 Q710.341,676.279 709.81,675.467 Q709.294,674.639 709.294,673.67 L709.294,672.779 Q709.294,671.764 709.763,670.889 Q710.247,670.014 711.075,669.545 Q711.919,669.061 712.857,669.061 Q713.419,669.061 713.904,669.201 Q714.404,669.326 714.825,669.592 Z " fill="#000"/><text x="730.863" y="678.334" fill="#000" font-size="13" textLength="124.179" font-family="'Segoe UI'">ApplicationEvaluation</text><line x1="683" y1="687.951" x2="874.93" y2="687.951" style="stroke:#132B64;stroke-width:0.5;"/><g data-visibility-modifier="PRIVATE_FIELD"><rect x="690" y="699.097" width="6" height="6" fill="none" style="stroke:#C82930;stroke-width:1;"/></g><text x="701" y="705.979" fill="#000" font-size="13" textLength="104.019" font-family="'Segoe UI'">technicalSkills : int</text><g data-visibility-modifier="PRIVATE_FIELD"><rect x="690" y="716.388" width="6" height="6" fill="none" style="stroke:#C82930;stroke-width:1;"/></g><text x="701" y="723.271" fill="#000" font-size="13" textLength="86.684" font-family="'Segoe UI'">experience : int</text><g data-visibility-modifier="PRIVATE_FIELD"><rect x="690" y="733.679" width="6" height="6" fill="none" style="stroke:#C82930;stroke-width:1;"/></g><text x="701" y="740.562" fill="#000" font-size="13" textLength="113.877" font-family="'Segoe UI'">communication : int</text><g data-visibility-modifier="PRIVATE_FIELD"><rect x="690" y="750.97" width="6" height="6" fill="none" style="stroke:#C82930;stroke-width:1;"/></g><text x="701" y="757.853" fill="#000" font-size="13" textLength="81.307" font-family="'Segoe UI'">culturalFit : int</text><g data-visibility-modifier="PRIVATE_FIELD"><rect x="690" y="768.261" width="6" height="6" fill="none" style="stroke:#C82930;stroke-width:1;"/></g><text x="701" y="775.144" fill="#000" font-size="13" textLength="117.908" font-family="'Segoe UI'">hasDegree : boolean</text><g data-visibility-modifier="PRIVATE_FIELD"><rect x="690" y="785.552" width="6" height="6" fill="none" style="stroke:#C82930;stroke-width:1;"/></g><text x="701" y="792.435" fill="#000" font-size="13" textLength="120.009" font-family="'Segoe UI'">passedTest : boolean</text><g data-visibility-modifier="PRIVATE_FIELD"><rect x="690" y="802.843" width="6" height="6" fill="none" style="stroke:#C82930;stroke-width:1;"/></g><text x="701" y="809.726" fill="#000" font-size="13" textLength="133.428" font-family="'Segoe UI'">availableNow : boolean</text><g data-visibility-modifier="PRIVATE_FIELD"><rect x="690" y="820.134" width="6" height="6" fill="none" style="stroke:#C82930;stroke-width:1;"/></g><text x="701" y="827.017" fill="#000" font-size="13" textLength="168.93" font-family="'Segoe UI'">interviewType : InterviewType</text><g data-visibility-modifier="PRIVATE_FIELD"><rect x="690" y="837.425" width="6" height="6" fill="none" style="stroke:#C82930;stroke-width:1;"/></g><text x="701" y="844.308" fill="#000" font-size="13" textLength="80.615" font-family="'Segoe UI'">score : double</text><g data-visibility-modifier="PRIVATE_FIELD"><rect x="690" y="854.716" width="6" height="6" fill="none" style="stroke:#C82930;stroke-width:1;"/></g><text x="701" y="861.599" fill="#000" font-size="13" textLength="75.626" font-family="'Segoe UI'">notes : String</text></g><!--class StoredFile--><g class="entity" data-qualified-name="StoredFile" id="ent0009" data-source-line="68"><rect x="459" y="701.451" width="146.475" height="124.455" fill="#FFF" style="stroke:#132B64;stroke-width:0.5;" rx="4" ry="4"/><rect x="459" y="701.451" width="146.475" height="30" fill="#EEF2FA" style="stroke:#EEF2FA;stroke-width:0.5;" rx="4" ry="4"/><rect x="459" y="727.451" width="146.475" height="4" fill="#EEF2FA" style="stroke:#EEF2FA;stroke-width:0.5;"/><rect x="459" y="701.451" width="146.475" height="124.455" fill="none" style="stroke:#132B64;stroke-width:0.5;" rx="4" ry="4"/><ellipse cx="499.609" cy="716.451" rx="10" ry="10" fill="#ADD1B2" style="stroke:#181818;stroke-width:1;"/><path d="M500.546,713.092 Q500.671,712.92 500.812,712.842 Q500.952,712.764 501.124,712.764 Q501.406,712.764 501.577,712.967 Q501.765,713.154 501.765,713.623 L501.765,714.732 Q501.765,715.201 501.577,715.404 Q501.406,715.592 501.124,715.592 Q500.859,715.592 500.702,715.451 Q500.546,715.311 500.468,714.904 Q500.421,714.639 500.296,714.498 Q500.031,714.201 499.562,714.029 Q499.093,713.857 498.624,713.857 Q498.046,713.857 497.546,714.123 Q497.062,714.373 496.687,714.951 Q496.312,715.514 496.312,716.295 L496.312,717.139 Q496.312,718.076 496.999,718.717 Q497.687,719.342 498.89,719.342 Q499.624,719.342 500.124,719.139 Q500.406,719.029 500.734,718.686 Q500.937,718.482 501.046,718.436 Q501.171,718.373 501.312,718.373 Q501.577,718.373 501.765,718.576 Q501.968,718.764 501.968,719.029 Q501.968,719.295 501.702,719.607 Q501.312,720.045 500.702,720.295 Q499.89,720.639 498.906,720.639 Q497.749,720.639 496.812,720.17 Q496.062,719.779 495.531,718.967 Q495.015,718.139 495.015,717.17 L495.015,716.279 Q495.015,715.264 495.484,714.389 Q495.968,713.514 496.796,713.045 Q497.64,712.561 498.577,712.561 Q499.14,712.561 499.624,712.701 Q500.124,712.826 500.546,713.092 Z " fill="#000"/><text x="518.522" y="721.834" fill="#000" font-size="13" textLength="57.345" font-family="'Segoe UI'">StoredFile</text><line x1="460" y1="731.451" x2="604.475" y2="731.451" style="stroke:#132B64;stroke-width:0.5;"/><g data-visibility-modifier="PRIVATE_FIELD"><rect x="467" y="742.597" width="6" height="6" fill="none" style="stroke:#C82930;stroke-width:1;"/></g><text x="478" y="749.479" fill="#000" font-size="13" textLength="101.886" font-family="'Segoe UI'">id : String «UUID»</text><g data-visibility-modifier="PRIVATE_FIELD"><rect x="467" y="759.888" width="6" height="6" fill="none" style="stroke:#C82930;stroke-width:1;"/></g><text x="478" y="766.771" fill="#000" font-size="13" textLength="121.475" font-family="'Segoe UI'">originalName : String</text><g data-visibility-modifier="PRIVATE_FIELD"><rect x="467" y="777.179" width="6" height="6" fill="none" style="stroke:#C82930;stroke-width:1;"/></g><text x="478" y="784.062" fill="#000" font-size="13" textLength="114.778" font-family="'Segoe UI'">storedName : String</text><g data-visibility-modifier="PRIVATE_FIELD"><rect x="467" y="794.47" width="6" height="6" fill="none" style="stroke:#C82930;stroke-width:1;"/></g><text x="478" y="801.353" fill="#000" font-size="13" textLength="115.419" font-family="'Segoe UI'">contentType : String</text><g data-visibility-modifier="PRIVATE_FIELD"><rect x="467" y="811.761" width="6" height="6" fill="none" style="stroke:#C82930;stroke-width:1;"/></g><text x="478" y="818.644" fill="#000" font-size="13" textLength="87.521" font-family="'Segoe UI'">sizeBytes : long</text></g><!--class MatchScore--><g class="entity" data-qualified-name="MatchScore" id="ent0010" data-source-line="76"><rect x="320.5" y="461.951" width="190.801" height="141.746" fill="#FFF" style="stroke:#132B64;stroke-width:0.5;" rx="4" ry="4"/><rect x="320.5" y="461.951" width="190.801" height="30" fill="#EEF2FA" style="stroke:#EEF2FA;stroke-width:0.5;" rx="4" ry="4"/><rect x="320.5" y="487.951" width="190.801" height="4" fill="#EEF2FA" style="stroke:#EEF2FA;stroke-width:0.5;"/><rect x="320.5" y="461.951" width="190.801" height="141.746" fill="none" style="stroke:#132B64;stroke-width:0.5;" rx="4" ry="4"/><ellipse cx="377.95" cy="476.951" rx="10" ry="10" fill="#ADD1B2" style="stroke:#181818;stroke-width:1;"/><path d="M378.887,473.592 Q379.012,473.42 379.153,473.342 Q379.294,473.264 379.466,473.264 Q379.747,473.264 379.919,473.467 Q380.106,473.654 380.106,474.123 L380.106,475.232 Q380.106,475.701 379.919,475.904 Q379.747,476.092 379.466,476.092 Q379.2,476.092 379.044,475.951 Q378.887,475.811 378.809,475.404 Q378.762,475.139 378.637,474.998 Q378.372,474.701 377.903,474.529 Q377.434,474.357 376.966,474.357 Q376.387,474.357 375.887,474.623 Q375.403,474.873 375.028,475.451 Q374.653,476.014 374.653,476.795 L374.653,477.639 Q374.653,478.576 375.341,479.217 Q376.028,479.842 377.231,479.842 Q377.966,479.842 378.466,479.639 Q378.747,479.529 379.075,479.186 Q379.278,478.982 379.387,478.936 Q379.512,478.873 379.653,478.873 Q379.919,478.873 380.106,479.076 Q380.309,479.264 380.309,479.529 Q380.309,479.795 380.044,480.107 Q379.653,480.545 379.044,480.795 Q378.231,481.139 377.247,481.139 Q376.091,481.139 375.153,480.67 Q374.403,480.279 373.872,479.467 Q373.356,478.639 373.356,477.67 L373.356,476.779 Q373.356,475.764 373.825,474.889 Q374.309,474.014 375.137,473.545 Q375.981,473.061 376.919,473.061 Q377.481,473.061 377.966,473.201 Q378.466,473.326 378.887,473.592 Z " fill="#000"/><text x="396.95" y="482.334" fill="#000" font-size="13" textLength="67.901" font-family="'Segoe UI'">MatchScore</text><line x1="321.5" y1="491.951" x2="510.301" y2="491.951" style="stroke:#132B64;stroke-width:0.5;"/><g data-visibility-modifier="PRIVATE_FIELD"><rect x="328.5" y="503.097" width="6" height="6" fill="none" style="stroke:#C82930;stroke-width:1;"/></g><text x="339.5" y="509.979" fill="#000" font-size="13" textLength="94.771" font-family="'Segoe UI'">overallScore : int</text><g data-visibility-modifier="PRIVATE_FIELD"><rect x="328.5" y="520.388" width="6" height="6" fill="none" style="stroke:#C82930;stroke-width:1;"/></g><text x="339.5" y="527.271" fill="#000" font-size="13" textLength="98.065" font-family="'Segoe UI'">cvSha256 : String</text><g data-visibility-modifier="PRIVATE_FIELD"><rect x="328.5" y="537.679" width="6" height="6" fill="none" style="stroke:#C82930;stroke-width:1;"/></g><text x="339.5" y="544.562" fill="#000" font-size="13" textLength="133.904" font-family="'Segoe UI'">offerFingerprint : String</text><g data-visibility-modifier="PRIVATE_FIELD"><rect x="328.5" y="554.97" width="6" height="6" fill="none" style="stroke:#C82930;stroke-width:1;"/></g><text x="339.5" y="561.853" fill="#000" font-size="13" textLength="142.625" font-family="'Segoe UI'">algorithmVersion : String</text><g data-visibility-modifier="PRIVATE_FIELD"><rect x="328.5" y="572.261" width="6" height="6" fill="none" style="stroke:#C82930;stroke-width:1;"/></g><text x="339.5" y="579.144" fill="#000" font-size="13" textLength="100.807" font-family="'Segoe UI'">resultJson : String</text><g data-visibility-modifier="PRIVATE_FIELD"><rect x="328.5" y="589.552" width="6" height="6" fill="none" style="stroke:#C82930;stroke-width:1;"/></g><text x="339.5" y="596.435" fill="#000" font-size="13" textLength="165.801" font-family="'Segoe UI'">computedAt : LocalDateTime</text></g><!--class Notification--><g class="entity" data-qualified-name="Notification" id="ent0011" data-source-line="85"><rect x="685.5" y="265.951" width="174.919" height="89.873" fill="#FFF" style="stroke:#132B64;stroke-width:0.5;" rx="4" ry="4"/><rect x="685.5" y="265.951" width="174.919" height="30" fill="#EEF2FA" style="stroke:#EEF2FA;stroke-width:0.5;" rx="4" ry="4"/><rect x="685.5" y="291.951" width="174.919" height="4" fill="#EEF2FA" style="stroke:#EEF2FA;stroke-width:0.5;"/><rect x="685.5" y="265.951" width="174.919" height="89.873" fill="none" style="stroke:#132B64;stroke-width:0.5;" rx="4" ry="4"/><ellipse cx="735.33" cy="280.951" rx="10" ry="10" fill="#ADD1B2" style="stroke:#181818;stroke-width:1;"/><path d="M736.267,277.592 Q736.392,277.42 736.533,277.342 Q736.673,277.264 736.845,277.264 Q737.126,277.264 737.298,277.467 Q737.486,277.654 737.486,278.123 L737.486,279.232 Q737.486,279.701 737.298,279.904 Q737.126,280.092 736.845,280.092 Q736.58,280.092 736.423,279.951 Q736.267,279.811 736.189,279.404 Q736.142,279.139 736.017,278.998 Q735.751,278.701 735.283,278.529 Q734.814,278.357 734.345,278.357 Q733.767,278.357 733.267,278.623 Q732.783,278.873 732.408,279.451 Q732.033,280.014 732.033,280.795 L732.033,281.639 Q732.033,282.576 732.72,283.217 Q733.408,283.842 734.611,283.842 Q735.345,283.842 735.845,283.639 Q736.126,283.529 736.455,283.186 Q736.658,282.982 736.767,282.936 Q736.892,282.873 737.033,282.873 Q737.298,282.873 737.486,283.076 Q737.689,283.264 737.689,283.529 Q737.689,283.795 737.423,284.107 Q737.033,284.545 736.423,284.795 Q735.611,285.139 734.626,285.139 Q733.47,285.139 732.533,284.67 Q731.783,284.279 731.251,283.467 Q730.736,282.639 730.736,281.67 L730.736,280.779 Q730.736,279.764 731.205,278.889 Q731.689,278.014 732.517,277.545 Q733.361,277.061 734.298,277.061 Q734.861,277.061 735.345,277.201 Q735.845,277.326 736.267,277.592 Z " fill="#000"/><text x="754.33" y="286.334" fill="#000" font-size="13" textLength="67.26" font-family="'Segoe UI'">Notification</text><line x1="686.5" y1="295.951" x2="859.419" y2="295.951" style="stroke:#132B64;stroke-width:0.5;"/><g data-visibility-modifier="PRIVATE_FIELD"><rect x="693.5" y="307.097" width="6" height="6" fill="none" style="stroke:#C82930;stroke-width:1;"/></g><text x="704.5" y="313.979" fill="#000" font-size="13" textLength="94.028" font-family="'Segoe UI'">message : String</text><g data-visibility-modifier="PRIVATE_FIELD"><rect x="693.5" y="324.388" width="6" height="6" fill="none" style="stroke:#C82930;stroke-width:1;"/></g><text x="704.5" y="331.271" fill="#000" font-size="13" textLength="149.919" font-family="'Segoe UI'">createdAt : LocalDateTime</text><g data-visibility-modifier="PRIVATE_FIELD"><rect x="693.5" y="341.679" width="6" height="6" fill="none" style="stroke:#C82930;stroke-width:1;"/></g><text x="704.5" y="348.562" fill="#000" font-size="13" textLength="94.244" font-family="'Segoe UI'">isRead : boolean</text></g><g class="link" data-entity-1="ent0005" data-entity-2="ent0006" id="lnk12" data-link-type="association"><path d="M577.882,143.188 C568.418,162.944 556.161,188.533 544.102,213.707" style="stroke:#132B64;stroke-width:1;" fill="none"/><text x="562" y="191.821" fill="#000" font-size="11" textLength="30.239" font-family="'Segoe UI'">publie</text><text x="528.102" y="210.577" fill="#000" font-size="11" textLength="15.286" font-family="'Segoe UI'">0..*</text><text x="571.882" y="156.058" fill="#000" font-size="11" font-family="'Segoe UI'">1</text></g><g class="link" data-entity-1="ent0005" data-entity-2="ent0007" id="lnk13" data-link-type="association"><path d="M597.87,143.278 C603.489,213.438 616.034,370.068 623.368,461.637" style="stroke:#132B64;stroke-width:1;" fill="none"/><text x="620" y="315.821" fill="#000" font-size="11" textLength="35.562" font-family="'Segoe UI'">dépose</text><text x="607.368" y="458.507" fill="#000" font-size="11" textLength="15.286" font-family="'Segoe UI'">0..*</text><text x="591.87" y="156.148" fill="#000" font-size="11" font-family="'Segoe UI'">1</text></g><g class="link" data-entity-1="ent0006" data-entity-2="ent0007" id="lnk14" data-link-type="association"><path d="M555.268,408.126 C566.008,426.163 577.048,444.704 587.209,461.768" style="stroke:#132B64;stroke-width:1;" fill="none"/><text x="577" y="439.821" fill="#000" font-size="11" textLength="27.495" font-family="'Segoe UI'">reçoit</text><text x="571.209" y="458.638" fill="#000" font-size="11" textLength="15.286" font-family="'Segoe UI'">0..*</text><text x="549.268" y="420.996" fill="#000" font-size="11" font-family="'Segoe UI'">1</text></g><g class="link" data-entity-1="ent0007" data-entity-2="ent0008" id="lnk15" data-link-type="association"><path d="M675.024,604.062 C686.134,620.985 698.245,639.435 710.149,657.568" style="stroke:#132B64;stroke-width:1;" fill="none"/><text x="697" y="635.821" fill="#000" font-size="11" textLength="50.166" font-family="'Segoe UI'">évaluation</text><text x="693.149" y="654.439" fill="#000" font-size="11" textLength="16.629" font-family="'Segoe UI'">0..1</text><text x="669.024" y="616.932" fill="#000" font-size="11" font-family="'Segoe UI'">1</text></g><g class="link" data-entity-1="ent0008" data-entity-2="ent0005" id="lnk16" data-link-type="association"><path d="M837.384,657.883 C894.623,539.833 961.108,346.936 870,213.951 C816.974,136.552 698.953,115.39 636.156,109.613" style="stroke:#132B64;stroke-width:1;" fill="none"/><text x="913" y="439.821" fill="#000" font-size="11" textLength="58.69" font-family="'Segoe UI'">evaluatedBy</text><text x="637.156" y="106.483" fill="#000" font-size="11" font-family="'Segoe UI'">1</text><text x="821.384" y="654.753" fill="#000" font-size="11" textLength="15.286" font-family="'Segoe UI'">0..*</text></g><g class="link" data-entity-1="ent0007" data-entity-2="ent0009" id="lnk17" data-link-type="dependency"><polygon points="575.091,701.364,583.24,695.832,577.731,697.117,576.445,691.608,575.091,701.364" fill="#132B64" style="stroke:#132B64;stroke-width:1;stroke-linejoin:miter;stroke-miterlimit:10;"/><path d="M618.045,603.952 C615.129,616.168 611.497,628.592 607,639.951 C598.692,660.934 589.525,678.144 577.731,697.117" style="stroke:#132B64;stroke-width:1;" fill="none"/><text x="614" y="635.821" fill="#000" font-size="11" textLength="26.802" font-family="'Segoe UI'">cvFile</text><text x="569.091" y="698.234" fill="#000" font-size="11" font-family="'Segoe UI'">1</text><text x="602.045" y="616.822" fill="#000" font-size="11" textLength="15.286" font-family="'Segoe UI'">0..*</text></g><g class="link" data-entity-1="ent0007" data-entity-2="ent0009" id="lnk18" data-link-type="dependency"><polygon points="519.398,701.343,522.52,692.002,518.92,696.366,514.556,692.766,519.398,701.343" fill="#132B64" style="stroke:#132B64;stroke-width:1;stroke-linejoin:miter;stroke-miterlimit:10;"/><path d="M539.277,604.116 C535.301,609.782 531.81,615.735 529,621.951 C517.945,646.406 516.466,670.809 518.92,696.366" style="stroke:#132B64;stroke-width:1;" fill="none"/><text x="531" y="635.821" fill="#000" font-size="11" textLength="70.786" font-family="'Segoe UI'">coverLetterFile</text><text x="502.398" y="698.213" fill="#000" font-size="11" textLength="16.629" font-family="'Segoe UI'">0..1</text><text x="523.277" y="616.986" fill="#000" font-size="11" textLength="15.286" font-family="'Segoe UI'">0..*</text></g><g class="link" data-entity-1="ent0005" data-entity-2="ent0009" id="lnk19" data-link-type="association"><path d="M553.938,107.757 C488.109,110.85 362.355,128.227 323,213.951 C286.824,292.752 271.398,526.815 311,603.951 C341.837,664.016 407.182,706.433 458.86,732.177" style="stroke:#132B64;stroke-width:1;" fill="none"/><text x="290" y="439.821" fill="#000" font-size="11" textLength="30.196" font-family="'Segoe UI'">owner</text><text x="442.86" y="729.047" fill="#000" font-size="11" textLength="15.286" font-family="'Segoe UI'">0..*</text><text x="547.938" y="104.627" fill="#000" font-size="11" font-family="'Segoe UI'">1</text></g><g class="link" data-entity-1="ent0005" data-entity-2="ent0010" id="lnk20" data-link-type="association"><path d="M553.715,111.788 C496.599,120.255 395.395,144.719 350,213.951 C300.841,288.923 338.206,393.437 373.581,461.875" style="stroke:#132B64;stroke-width:1;" fill="none"/><text x="352" y="315.821" fill="#000" font-size="11" textLength="41.846" font-family="'Segoe UI'">candidat</text><text x="357.581" y="458.745" fill="#000" font-size="11" textLength="15.286" font-family="'Segoe UI'">0..*</text><text x="547.715" y="124.658" fill="#000" font-size="11" font-family="'Segoe UI'">1</text></g><g class="link" data-entity-1="ent0006" data-entity-2="ent0010" id="lnk21" data-link-type="association"><path d="M462.153,408.126 C455.43,426.163 448.519,444.704 442.159,461.768" style="stroke:#132B64;stroke-width:1;" fill="none"/><text x="426.159" y="458.638" fill="#000" font-size="11" textLength="15.286" font-family="'Segoe UI'">0..*</text><text x="456.153" y="420.996" fill="#000" font-size="11" font-family="'Segoe UI'">1</text></g><g class="link" data-entity-1="ent0005" data-entity-2="ent0011" id="lnk22" data-link-type="association"><path d="M626.413,143.188 C656.454,177.364 701.836,228.993 734.139,265.741" style="stroke:#132B64;stroke-width:1;" fill="none"/><text x="670" y="191.821" fill="#000" font-size="11" textLength="56.676" font-family="'Segoe UI'">destinataire</text><text x="718.139" y="262.612" fill="#000" font-size="11" textLength="15.286" font-family="'Segoe UI'">0..*</text><text x="620.413" y="156.058" fill="#000" font-size="11" font-family="'Segoe UI'">1</text></g><g class="link" data-entity-1="ent0011" data-entity-2="ent0007" id="lnk23" data-link-type="dependency"><polygon points="674.93,461.78,683.206,456.44,677.668,457.597,676.512,452.059,674.93,461.78" fill="#132B64" style="stroke:#132B64;stroke-width:1;stroke-linejoin:miter;stroke-miterlimit:10;"/><path d="M744.033,356.207 C724.239,386.446 700.331,422.973 677.668,457.597" style="stroke:#132B64;stroke-width:1;" fill="none"/><text x="657.93" y="458.65" fill="#000" font-size="11" textLength="16.629" font-family="'Segoe UI'">0..1</text><text x="728.033" y="369.077" fill="#000" font-size="11" textLength="15.286" font-family="'Segoe UI'">0..*</text></g><?plantuml-src VLNDRfj04Bxp51iVAoLgAhK755boR1mvSkmea5whCOpjLPTTjBiuTQi-JvNdo8jrM1oyO9mBi3FV_7-pN1GQDZam0NjLMcPoj20XkE0o5MM6x8UnUu5NHPcBOCj9W7bXzunWMvMPm78ha4quR3JaEJ82f0ACGSD2fjPhJHzeMGeoundOaiv1WBBCsNAzHXrRaXds9s1i-HWjw3MUB-De4lmzeCPAMWsfJVO5EjXuCdFF2JtZP7GNqNlw54NpqM8SDMQZeX0y1SkLz49GXCbiSKTVe_4uUaoYoibJT1-D4o_aJ5hKEuulJSpb8fubaSC-B1CNnHN9dWrgXxXaFAE2vqfkt4ahwah8dkXrHD-hbIkwrw9kPCXYg_b1bA59DI-g8jeAeUhIsjBKRrNOwfpJ5-LASBF5R6HTu1J412mcFCT3ECW4b-WhdSBK7GpzaTKHXJAzxfgIlJdqLWr7VMLyFlJ9G0ybxr3FqTB0shtWxpFiUcsgRH1TyxxSens8qg_2OhgLf1JnJov4bI3vSnhyLQ3cA5FqXAdAyrBoPcgDl1Iq4Y2ct7hIBPW9RZHM7bQAA0Io7c2rLrc2ndOKi0CkO2LmeLuwAjuYSzWcTztYLEbAaodYHosIohhzxNOajWJDfboWFymQnMvkdfzda-7GAPJc6ov1B23laDeu7wVoYhqetydh6_3VUBkl4nBAJ-S1RBgDNVfrEXKRG8ZuK57JvLsyXIzVlxNzgehCKpgXBaXesreG6wh1RlFlgCt9gj4jHfExDwShc1Ub_NWb5ihoTNidSZG6Djs6Q0HxTbcvUQ9rzOPD_jrjDBWUiCjBDlXyTVLfSBnomdhzaGtxOFwQ4XFUNWjQR88svX_1DRxzKqJWOU3BFOlhmPbT2jdRQtCA-Z67a9KhykDo3ndMUinkzzsmx_2XmtkC3Oa7rSTPU9rfs-9ulpZJdjQryEf54g2tnHvPm-PtUBx5HtYVinQ7mkf7OMdRB71TJQsbFQtGg_y_?></g></svg>