<svg xmlns="http://www.w3.org/2000/svg" xmlns:xlink="http://www.w3.org/1999/xlink" version="1.1" data-diagram-type="CLASS" style="width:1062px;height:670px;background:#FFFFFF;" width="1062px" height="670px" viewBox="0 0 1062 670" zoomAndPan="magnify" preserveAspectRatio="none" contentStyleType="text/css"><?plantuml 1.2026.8?><defs/><g font-family="sans-serif" lengthAdjust="spacing"><g class="title" data-source-line="4"><text x="380.105" y="26.187" fill="#000" font-size="15" textLength="295.291" font-weight="700" font-family="'Segoe UI'">Diagramme de classes : comptes et profils</text></g><!--class Role--><g class="entity" data-qualified-name="Role" id="ent0001" data-source-line="6"><rect x="44.5" y="95.951" width="81.621" height="72.582" fill="#FFF" style="stroke:#132B64;stroke-width:0.5;" rx="4" ry="4"/><rect x="44.5" y="95.951" width="81.621" height="30" fill="#EEF2FA" style="stroke:#EEF2FA;stroke-width:0.5;" rx="4" ry="4"/><rect x="44.5" y="121.951" width="81.621" height="4" fill="#EEF2FA" style="stroke:#EEF2FA;stroke-width:0.5;"/><rect x="44.5" y="95.951" width="81.621" height="72.582" fill="none" style="stroke:#132B64;stroke-width:0.5;" rx="4" ry="4"/><ellipse cx="70.327" cy="110.951" rx="10" ry="10" fill="#EB937F" style="stroke:#181818;stroke-width:1;"/><path d="M69.389,111.732 L69.389,113.654 L72.717,113.654 L72.717,112.951 Q72.717,112.482 72.889,112.279 Q73.077,112.076 73.358,112.076 Q73.655,112.076 73.827,112.279 Q74.014,112.482 74.014,112.951 L74.014,114.951 L67.889,114.951 Q67.42,114.951 67.217,114.779 Q67.014,114.592 67.014,114.295 Q67.014,114.014 67.217,113.842 Q67.42,113.654 67.889,113.654 L68.092,113.654 L68.092,108.561 L67.889,108.561 Q67.42,108.561 67.217,108.389 Q67.014,108.201 67.014,107.904 Q67.014,107.607 67.217,107.436 Q67.42,107.248 67.889,107.248 L73.733,107.264 L73.733,109.232 Q73.733,109.701 73.545,109.904 Q73.373,110.107 73.077,110.107 Q72.78,110.107 72.592,109.904 Q72.42,109.701 72.42,109.232 L72.42,108.561 L69.389,108.561 L69.389,110.436 L70.53,110.436 Q70.53,109.936 70.623,109.779 Q70.827,109.467 71.186,109.467 Q71.467,109.467 71.655,109.67 Q71.842,109.873 71.842,110.342 L71.842,111.842 Q71.842,112.264 71.733,112.404 Q71.53,112.717 71.186,112.717 Q70.827,112.717 70.623,112.404 Q70.53,112.248 70.53,111.732 L69.389,111.732 Z " fill="#000"/><text x="85.955" y="116.334" fill="#000" font-size="13" textLength="25.34" font-family="'Segoe UI'">Role</text><line x1="45.5" y1="125.951" x2="125.121" y2="125.951" style="stroke:#132B64;stroke-width:0.5;"/><text x="50.5" y="143.979" fill="#000" font-size="13" textLength="69.621" font-family="'Segoe UI'">CANDIDATE</text><text x="50.5" y="161.271" fill="#000" font-size="13" textLength="63.73" font-family="'Segoe UI'">RECRUITER</text></g><!--class LanguageLevel--><g class="entity" data-qualified-name="LanguageLevel" id="ent0002" data-source-line="11"><rect x="145" y="70.451" width="115.262" height="124.455" fill="#FFF" style="stroke:#132B64;stroke-width:0.5;" rx="4" ry="4"/><rect x="145" y="70.451" width="115.262" height="30" fill="#EEF2FA" style="stroke:#EEF2FA;stroke-width:0.5;" rx="4" ry="4"/><rect x="145" y="96.451" width="115.262" height="4" fill="#EEF2FA" style="stroke:#EEF2FA;stroke-width:0.5;"/><rect x="145" y="70.451" width="115.262" height="124.455" fill="none" style="stroke:#132B64;stroke-width:0.5;" rx="4" ry="4"/><ellipse cx="159" cy="85.451" rx="10" ry="10" fill="#EB937F" style="stroke:#181818;stroke-width:1;"/><path d="M158.063,86.232 L158.063,88.154 L161.391,88.154 L161.391,87.451 Q161.391,86.982 161.563,86.779 Q161.75,86.576 162.031,86.576 Q162.328,86.576 162.5,86.779 Q162.688,86.982 162.688,87.451 L162.688,89.451 L156.563,89.451 Q156.094,89.451 155.891,89.279 Q155.688,89.092 155.688,88.795 Q155.688,88.514 155.891,88.342 Q156.094,88.154 156.563,88.154 L156.766,88.154 L156.766,83.061 L156.563,83.061 Q156.094,83.061 155.891,82.889 Q155.688,82.701 155.688,82.404 Q155.688,82.107 155.891,81.936 Q156.094,81.748 156.563,81.748 L162.406,81.764 L162.406,83.732 Q162.406,84.201 162.219,84.404 Q162.047,84.607 161.75,84.607 Q161.453,84.607 161.266,84.404 Q161.094,84.201 161.094,83.732 L161.094,83.061 L158.063,83.061 L158.063,84.936 L159.203,84.936 Q159.203,84.436 159.297,84.279 Q159.5,83.967 159.859,83.967 Q160.141,83.967 160.328,84.17 Q160.516,84.373 160.516,84.842 L160.516,86.342 Q160.516,86.764 160.406,86.904 Q160.203,87.217 159.859,87.217 Q159.5,87.217 159.297,86.904 Q159.203,86.748 159.203,86.232 L158.063,86.232 Z " fill="#000"/><text x="172" y="90.834" fill="#000" font-size="13" textLength="85.262" font-family="'Segoe UI'">LanguageLevel</text><line x1="146" y1="100.451" x2="259.262" y2="100.451" style="stroke:#132B64;stroke-width:0.5;"/><text x="151" y="118.479" fill="#000" font-size="13" textLength="43.031" font-family="'Segoe UI'">NATIVE</text><text x="151" y="135.771" fill="#000" font-size="13" textLength="44.51" font-family="'Segoe UI'">FLUENT</text><text x="151" y="153.062" fill="#000" font-size="13" textLength="89.083" font-family="'Segoe UI'">PROFESSIONAL</text><text x="151" y="170.353" fill="#000" font-size="13" textLength="86.944" font-family="'Segoe UI'">INTERMEDIATE</text><text x="151" y="187.644" fill="#000" font-size="13" textLength="34.252" font-family="'Segoe UI'">BASIC</text></g><!--class CompanyImportStatus--><g class="entity" data-qualified-name="CompanyImportStatus" id="ent0003" data-source-line="19"><rect x="6" y="326.451" width="158.813" height="107.164" fill="#FFF" style="stroke:#132B64;stroke-width:0.5;" rx="4" ry="4"/><rect x="6" y="326.451" width="158.813" height="30" fill="#EEF2FA" style="stroke:#EEF2FA;stroke-width:0.5;" rx="4" ry="4"/><rect x="6" y="352.451" width="158.813" height="4" fill="#EEF2FA" style="stroke:#EEF2FA;stroke-width:0.5;"/><rect x="6" y="326.451" width="158.813" height="107.164" fill="none" style="stroke:#132B64;stroke-width:0.5;" rx="4" ry="4"/><ellipse cx="20" cy="341.451" rx="10" ry="10" fill="#EB937F" style="stroke:#181818;stroke-width:1;"/><path d="M19.063,342.232 L19.063,344.154 L22.391,344.154 L22.391,343.451 Q22.391,342.982 22.563,342.779 Q22.75,342.576 23.031,342.576 Q23.328,342.576 23.5,342.779 Q23.688,342.982 23.688,343.451 L23.688,345.451 L17.563,345.451 Q17.094,345.451 16.891,345.279 Q16.688,345.092 16.688,344.795 Q16.688,344.514 16.891,344.342 Q17.094,344.154 17.563,344.154 L17.766,344.154 L17.766,339.061 L17.563,339.061 Q17.094,339.061 16.891,338.889 Q16.688,338.701 16.688,338.404 Q16.688,338.107 16.891,337.936 Q17.094,337.748 17.563,337.748 L23.406,337.764 L23.406,339.732 Q23.406,340.201 23.219,340.404 Q23.047,340.607 22.75,340.607 Q22.453,340.607 22.266,340.404 Q22.094,340.201 22.094,339.732 L22.094,339.061 L19.063,339.061 L19.063,340.936 L20.203,340.936 Q20.203,340.436 20.297,340.279 Q20.5,339.967 20.859,339.967 Q21.141,339.967 21.328,340.17 Q21.516,340.373 21.516,340.842 L21.516,342.342 Q21.516,342.764 21.406,342.904 Q21.203,343.217 20.859,343.217 Q20.5,343.217 20.297,342.904 Q20.203,342.748 20.203,342.232 L19.063,342.232 Z " fill="#000"/><text x="33" y="346.834" fill="#000" font-size="13" textLength="128.813" font-family="'Segoe UI'">CompanyImportStatus</text><line x1="7" y1="356.451" x2="163.813" y2="356.451" style="stroke:#132B64;stroke-width:0.5;"/><text x="12" y="374.479" fill="#000" font-size="13" textLength="100.801" font-family="'Segoe UI'">NOT_REQUESTED</text><text x="12" y="391.771" fill="#000" font-size="13" textLength="80.52" font-family="'Segoe UI'">IN_PROGRESS</text><text x="12" y="409.062" fill="#000" font-size="13" textLength="72.001" font-family="'Segoe UI'">COMPLETED</text><text x="12" y="426.353" fill="#000" font-size="13" textLength="40.003" font-family="'Segoe UI'">FAILED</text></g><!--class User--><g class="entity" data-qualified-name="User" id="ent0004" data-source-line="26"><rect x="456.5" y="52.951" width="200.297" height="159.037" fill="#FFF" style="stroke:#132B64;stroke-width:0.5;" rx="4" ry="4"/><rect x="456.5" y="52.951" width="200.297" height="30" fill="#EEF2FA" style="stroke:#EEF2FA;stroke-width:0.5;" rx="4" ry="4"/><rect x="456.5" y="78.951" width="200.297" height="4" fill="#EEF2FA" style="stroke:#EEF2FA;stroke-width:0.5;"/><rect x="456.5" y="52.951" width="200.297" height="159.037" fill="none" style="stroke:#132B64;stroke-width:0.5;" rx="4" ry="4"/><ellipse cx="539.766" cy="67.951" rx="10" ry="10" fill="#ADD1B2" style="stroke:#181818;stroke-width:1;"/><path d="M540.703,64.592 Q540.828,64.42 540.969,64.342 Q541.11,64.264 541.281,64.264 Q541.563,64.264 541.735,64.467 Q541.922,64.654 541.922,65.123 L541.922,66.232 Q541.922,66.701 541.735,66.904 Q541.563,67.092 541.281,67.092 Q541.016,67.092 540.86,66.951 Q540.703,66.811 540.625,66.404 Q540.578,66.139 540.453,65.998 Q540.188,65.701 539.719,65.529 Q539.25,65.357 538.781,65.357 Q538.203,65.357 537.703,65.623 Q537.219,65.873 536.844,66.451 Q536.469,67.014 536.469,67.795 L536.469,68.639 Q536.469,69.576 537.156,70.217 Q537.844,70.842 539.047,70.842 Q539.781,70.842 540.281,70.639 Q540.563,70.529 540.891,70.186 Q541.094,69.982 541.203,69.936 Q541.328,69.873 541.469,69.873 Q541.735,69.873 541.922,70.076 Q542.125,70.264 542.125,70.529 Q542.125,70.795 541.86,71.107 Q541.469,71.545 540.86,71.795 Q540.047,72.139 539.063,72.139 Q537.906,72.139 536.969,71.67 Q536.219,71.279 535.688,70.467 Q535.172,69.639 535.172,68.67 L535.172,67.779 Q535.172,66.764 535.641,65.889 Q536.125,65.014 536.953,64.545 Q537.797,64.061 538.735,64.061 Q539.297,64.061 539.781,64.201 Q540.281,64.326 540.703,64.592 Z " fill="#000"/><text x="558.766" y="73.334" fill="#000" font-size="13" textLength="25.765" font-family="'Segoe UI'">User</text><line x1="457.5" y1="82.951" x2="655.797" y2="82.951" style="stroke:#132B64;stroke-width:0.5;"/><g data-visibility-modifier="PRIVATE_FIELD"><rect x="464.5" y="94.097" width="6" height="6" fill="none" style="stroke:#C82930;stroke-width:1;"/></g><text x="475.5" y="100.979" fill="#000" font-size="13" textLength="49.493" font-family="'Segoe UI'">id : Long</text><g data-visibility-modifier="PRIVATE_FIELD"><rect x="464.5" y="111.388" width="6" height="6" fill="none" style="stroke:#C82930;stroke-width:1;"/></g><text x="475.5" y="118.271" fill="#000" font-size="13" textLength="99.925" font-family="'Segoe UI'">firstName : String</text><g data-visibility-modifier="PRIVATE_FIELD"><rect x="464.5" y="128.679" width="6" height="6" fill="none" style="stroke:#C82930;stroke-width:1;"/></g><text x="475.5" y="135.562" fill="#000" font-size="13" textLength="97.951" font-family="'Segoe UI'">lastName : String</text><g data-visibility-modifier="PRIVATE_FIELD"><rect x="464.5" y="145.97" width="6" height="6" fill="none" style="stroke:#C82930;stroke-width:1;"/></g><text x="475.5" y="152.853" fill="#000" font-size="13" textLength="74.839" font-family="'Segoe UI'">email : String</text><g data-visibility-modifier="PRIVATE_FIELD"><rect x="464.5" y="163.261" width="6" height="6" fill="none" style="stroke:#C82930;stroke-width:1;"/></g><text x="475.5" y="170.144" fill="#000" font-size="13" textLength="153.48" font-family="'Segoe UI'">password : String «BCrypt»</text><g data-visibility-modifier="PRIVATE_FIELD"><rect x="464.5" y="180.552" width="6" height="6" fill="none" style="stroke:#C82930;stroke-width:1;"/></g><text x="475.5" y="187.435" fill="#000" font-size="13" textLength="57.364" font-family="'Segoe UI'">role : Role</text><g data-visibility-modifier="PRIVATE_FIELD"><rect x="464.5" y="197.843" width="6" height="6" fill="none" style="stroke:#C82930;stroke-width:1;"/></g><text x="475.5" y="204.726" fill="#000" font-size="13" textLength="175.297" font-family="'Segoe UI'">credentialsChangedAt : Instant</text></g><!--class CandidateProfile--><g class="entity" data-qualified-name="CandidateProfile" id="ent0005" data-source-line="36"><rect x="183" y="291.951" width="133.38" height="176.328" fill="#FFF" style="stroke:#132B64;stroke-width:0.5;" rx="4" ry="4"/><rect x="183" y="291.951" width="133.38" height="30" fill="#EEF2FA" style="stroke:#EEF2FA;stroke-width:0.5;" rx="4" ry="4"/><rect x="183" y="317.951" width="133.38" height="4" fill="#EEF2FA" style="stroke:#EEF2FA;stroke-width:0.5;"/><rect x="183" y="291.951" width="133.38" height="176.328" fill="none" style="stroke:#132B64;stroke-width:0.5;" rx="4" ry="4"/><ellipse cx="200.826" cy="306.951" rx="10" ry="10" fill="#ADD1B2" style="stroke:#181818;stroke-width:1;"/><path d="M201.763,303.592 Q201.888,303.42 202.029,303.342 Q202.169,303.264 202.341,303.264 Q202.623,303.264 202.794,303.467 Q202.982,303.654 202.982,304.123 L202.982,305.232 Q202.982,305.701 202.794,305.904 Q202.623,306.092 202.341,306.092 Q202.076,306.092 201.919,305.951 Q201.763,305.811 201.685,305.404 Q201.638,305.139 201.513,304.998 Q201.248,304.701 200.779,304.529 Q200.31,304.357 199.841,304.357 Q199.263,304.357 198.763,304.623 Q198.279,304.873 197.904,305.451 Q197.529,306.014 197.529,306.795 L197.529,307.639 Q197.529,308.576 198.216,309.217 Q198.904,309.842 200.107,309.842 Q200.841,309.842 201.341,309.639 Q201.623,309.529 201.951,309.186 Q202.154,308.982 202.263,308.936 Q202.388,308.873 202.529,308.873 Q202.794,308.873 202.982,309.076 Q203.185,309.264 203.185,309.529 Q203.185,309.795 202.919,310.107 Q202.529,310.545 201.919,310.795 Q201.107,311.139 200.123,311.139 Q198.966,311.139 198.029,310.67 Q197.279,310.279 196.748,309.467 Q196.232,308.639 196.232,307.67 L196.232,306.779 Q196.232,305.764 196.701,304.889 Q197.185,304.014 198.013,303.545 Q198.857,303.061 199.794,303.061 Q200.357,303.061 200.841,303.201 Q201.341,303.326 201.763,303.592 Z " fill="#000"/><text x="214.676" y="312.334" fill="#000" font-size="13" textLength="94.878" font-family="'Segoe UI'">CandidateProfile</text><line x1="184" y1="321.951" x2="315.38" y2="321.951" style="stroke:#132B64;stroke-width:0.5;"/><g data-visibility-modifier="PRIVATE_FIELD"><rect x="191" y="333.097" width="6" height="6" fill="none" style="stroke:#C82930;stroke-width:1;"/></g><text x="202" y="339.979" fill="#000" font-size="13" textLength="92.809" font-family="'Segoe UI'">headline : String</text><g data-visibility-modifier="PRIVATE_FIELD"><rect x="191" y="350.388" width="6" height="6" fill="none" style="stroke:#C82930;stroke-width:1;"/></g><text x="202" y="357.271" fill="#000" font-size="13" textLength="62.34" font-family="'Segoe UI'">bio : String</text><g data-visibility-modifier="PRIVATE_FIELD"><rect x="191" y="367.679" width="6" height="6" fill="none" style="stroke:#C82930;stroke-width:1;"/></g><text x="202" y="374.562" fill="#000" font-size="13" textLength="100.89" font-family="'Segoe UI'">education : String</text><g data-visibility-modifier="PRIVATE_FIELD"><rect x="191" y="384.97" width="6" height="6" fill="none" style="stroke:#C82930;stroke-width:1;"/></g><text x="202" y="391.853" fill="#000" font-size="13" textLength="83.808" font-family="'Segoe UI'">picture : String</text><g data-visibility-modifier="PRIVATE_FIELD"><rect x="191" y="402.261" width="6" height="6" fill="none" style="stroke:#C82930;stroke-width:1;"/></g><text x="202" y="409.144" fill="#000" font-size="13" textLength="107.002" font-family="'Segoe UI'">urlLinkedin : String</text><g data-visibility-modifier="PRIVATE_FIELD"><rect x="191" y="419.552" width="6" height="6" fill="none" style="stroke:#C82930;stroke-width:1;"/></g><text x="202" y="426.435" fill="#000" font-size="13" textLength="97.786" font-family="'Segoe UI'">urlGithub : String</text><g data-visibility-modifier="PRIVATE_FIELD"><rect x="191" y="436.843" width="6" height="6" fill="none" style="stroke:#C82930;stroke-width:1;"/></g><text x="202" y="443.726" fill="#000" font-size="13" textLength="108.38" font-family="'Segoe UI'">urlPortfolio : String</text><g data-visibility-modifier="PRIVATE_FIELD"><rect x="191" y="454.134" width="6" height="6" fill="none" style="stroke:#C82930;stroke-width:1;"/></g><text x="202" y="461.017" fill="#000" font-size="13" textLength="107.847" font-family="'Segoe UI'">skills : List&lt;String></text></g><!--class CandidateLanguage--><g class="entity" data-qualified-name="CandidateLanguage" id="ent0006" data-source-line="47"><rect x="94.5" y="556.451" width="146.323" height="72.582" fill="#FFF" style="stroke:#132B64;stroke-width:0.5;" rx="4" ry="4"/><rect x="94.5" y="556.451" width="146.323" height="30" fill="#EEF2FA" style="stroke:#EEF2FA;stroke-width:0.5;" rx="4" ry="4"/><rect x="94.5" y="582.451" width="146.323" height="4" fill="#EEF2FA" style="stroke:#EEF2FA;stroke-width:0.5;"/><rect x="94.5" y="556.451" width="146.323" height="72.582" fill="none" style="stroke:#132B64;stroke-width:0.5;" rx="4" ry="4"/><ellipse cx="109.335" cy="571.451" rx="10" ry="10" fill="#ADD1B2" style="stroke:#181818;stroke-width:1;"/><path d="M110.272,568.092 Q110.397,567.92 110.538,567.842 Q110.679,567.764 110.851,567.764 Q111.132,567.764 111.304,567.967 Q111.491,568.154 111.491,568.623 L111.491,569.732 Q111.491,570.201 111.304,570.404 Q111.132,570.592 110.851,570.592 Q110.585,570.592 110.429,570.451 Q110.272,570.311 110.194,569.904 Q110.147,569.639 110.022,569.498 Q109.757,569.201 109.288,569.029 Q108.819,568.857 108.351,568.857 Q107.772,568.857 107.272,569.123 Q106.788,569.373 106.413,569.951 Q106.038,570.514 106.038,571.295 L106.038,572.139 Q106.038,573.076 106.726,573.717 Q107.413,574.342 108.616,574.342 Q109.351,574.342 109.851,574.139 Q110.132,574.029 110.46,573.686 Q110.663,573.482 110.772,573.436 Q110.897,573.373 111.038,573.373 Q111.304,573.373 111.491,573.576 Q111.694,573.764 111.694,574.029 Q111.694,574.295 111.429,574.607 Q111.038,575.045 110.429,575.295 Q109.616,575.639 108.632,575.639 Q107.476,575.639 106.538,575.17 Q105.788,574.779 105.257,573.967 Q104.741,573.139 104.741,572.17 L104.741,571.279 Q104.741,570.264 105.21,569.389 Q105.694,568.514 106.522,568.045 Q107.366,567.561 108.304,567.561 Q108.866,567.561 109.351,567.701 Q109.851,567.826 110.272,568.092 Z " fill="#000"/><text x="122.521" y="576.834" fill="#000" font-size="13" textLength="114.467" font-family="'Segoe UI'">CandidateLanguage</text><line x1="95.5" y1="586.451" x2="239.823" y2="586.451" style="stroke:#132B64;stroke-width:0.5;"/><g data-visibility-modifier="PRIVATE_FIELD"><rect x="102.5" y="597.597" width="6" height="6" fill="none" style="stroke:#C82930;stroke-width:1;"/></g><text x="113.5" y="604.479" fill="#000" font-size="13" textLength="97.132" font-family="'Segoe UI'">language : String</text><g data-visibility-modifier="PRIVATE_FIELD"><rect x="102.5" y="614.888" width="6" height="6" fill="none" style="stroke:#C82930;stroke-width:1;"/></g><text x="113.5" y="621.771" fill="#000" font-size="13" textLength="121.323" font-family="'Segoe UI'">level : LanguageLevel</text></g><!--class Experience--><g class="entity" data-qualified-name="Experience" id="ent0007" data-source-line="52"><rect x="258.5" y="530.951" width="143.771" height="124.455" fill="#FFF" style="stroke:#132B64;stroke-width:0.5;" rx="4" ry="4"/><rect x="258.5" y="530.951" width="143.771" height="30" fill="#EEF2FA" style="stroke:#EEF2FA;stroke-width:0.5;" rx="4" ry="4"/><rect x="258.5" y="556.951" width="143.771" height="4" fill="#EEF2FA" style="stroke:#EEF2FA;stroke-width:0.5;"/><rect x="258.5" y="530.951" width="143.771" height="124.455" fill="none" style="stroke:#132B64;stroke-width:0.5;" rx="4" ry="4"/><ellipse cx="295.972" cy="545.951" rx="10" ry="10" fill="#ADD1B2" style="stroke:#181818;stroke-width:1;"/><path d="M296.91,542.592 Q297.035,542.42 297.175,542.342 Q297.316,542.264 297.488,542.264 Q297.769,542.264 297.941,542.467 Q298.129,542.654 298.129,543.123 L298.129,544.232 Q298.129,544.701 297.941,544.904 Q297.769,545.092 297.488,545.092 Q297.222,545.092 297.066,544.951 Q296.91,544.811 296.832,544.404 Q296.785,544.139 296.66,543.998 Q296.394,543.701 295.925,543.529 Q295.457,543.357 294.988,543.357 Q294.41,543.357 293.91,543.623 Q293.425,543.873 293.05,544.451 Q292.675,545.014 292.675,545.795 L292.675,546.639 Q292.675,547.576 293.363,548.217 Q294.05,548.842 295.254,548.842 Q295.988,548.842 296.488,548.639 Q296.769,548.529 297.097,548.186 Q297.3,547.982 297.41,547.936 Q297.535,547.873 297.675,547.873 Q297.941,547.873 298.129,548.076 Q298.332,548.264 298.332,548.529 Q298.332,548.795 298.066,549.107 Q297.675,549.545 297.066,549.795 Q296.254,550.139 295.269,550.139 Q294.113,550.139 293.175,549.67 Q292.425,549.279 291.894,548.467 Q291.379,547.639 291.379,546.67 L291.379,545.779 Q291.379,544.764 291.847,543.889 Q292.332,543.014 293.16,542.545 Q294.004,542.061 294.941,542.061 Q295.504,542.061 295.988,542.201 Q296.488,542.326 296.91,542.592 Z " fill="#000"/><text x="314.188" y="551.334" fill="#000" font-size="13" textLength="61.61" font-family="'Segoe UI'">Experience</text><line x1="259.5" y1="560.951" x2="401.271" y2="560.951" style="stroke:#132B64;stroke-width:0.5;"/><g data-visibility-modifier="PRIVATE_FIELD"><rect x="266.5" y="572.097" width="6" height="6" fill="none" style="stroke:#C82930;stroke-width:1;"/></g><text x="277.5" y="578.979" fill="#000" font-size="13" textLength="49.493" font-family="'Segoe UI'">id : Long</text><g data-visibility-modifier="PRIVATE_FIELD"><rect x="266.5" y="589.388" width="6" height="6" fill="none" style="stroke:#C82930;stroke-width:1;"/></g><text x="277.5" y="596.271" fill="#000" font-size="13" textLength="90.384" font-family="'Segoe UI'">position : String</text><g data-visibility-modifier="PRIVATE_FIELD"><rect x="266.5" y="606.679" width="6" height="6" fill="none" style="stroke:#C82930;stroke-width:1;"/></g><text x="277.5" y="613.562" fill="#000" font-size="13" textLength="96.656" font-family="'Segoe UI'">company : String</text><g data-visibility-modifier="PRIVATE_FIELD"><rect x="266.5" y="623.97" width="6" height="6" fill="none" style="stroke:#C82930;stroke-width:1;"/></g><text x="277.5" y="630.853" fill="#000" font-size="13" textLength="118.771" font-family="'Segoe UI'">startDate : LocalDate</text><g data-visibility-modifier="PRIVATE_FIELD"><rect x="266.5" y="641.261" width="6" height="6" fill="none" style="stroke:#C82930;stroke-width:1;"/></g><text x="277.5" y="648.144" fill="#000" font-size="13" textLength="115.121" font-family="'Segoe UI'">endDate : LocalDate</text></g><!--class CandidateCv--><g class="entity" data-qualified-name="CandidateCv" id="ent0008" data-source-line="60"><rect x="334" y="300.451" width="186.611" height="159.037" fill="#FFF" style="stroke:#132B64;stroke-width:0.5;" rx="4" ry="4"/><rect x="334" y="300.451" width="186.611" height="30" fill="#EEF2FA" style="stroke:#EEF2FA;stroke-width:0.5;" rx="4" ry="4"/><rect x="334" y="326.451" width="186.611" height="4" fill="#EEF2FA" style="stroke:#EEF2FA;stroke-width:0.5;"/><rect x="334" y="300.451" width="186.611" height="159.037" fill="none" style="stroke:#132B64;stroke-width:0.5;" rx="4" ry="4"/><ellipse cx="387.019" cy="315.451" rx="10" ry="10" fill="#ADD1B2" style="stroke:#181818;stroke-width:1;"/><path d="M387.957,312.092 Q388.082,311.92 388.222,311.842 Q388.363,311.764 388.535,311.764 Q388.816,311.764 388.988,311.967 Q389.176,312.154 389.176,312.623 L389.176,313.732 Q389.176,314.201 388.988,314.404 Q388.816,314.592 388.535,314.592 Q388.269,314.592 388.113,314.451 Q387.957,314.311 387.879,313.904 Q387.832,313.639 387.707,313.498 Q387.441,313.201 386.972,313.029 Q386.504,312.857 386.035,312.857 Q385.457,312.857 384.957,313.123 Q384.472,313.373 384.097,313.951 Q383.722,314.514 383.722,315.295 L383.722,316.139 Q383.722,317.076 384.41,317.717 Q385.097,318.342 386.301,318.342 Q387.035,318.342 387.535,318.139 Q387.816,318.029 388.144,317.686 Q388.347,317.482 388.457,317.436 Q388.582,317.373 388.722,317.373 Q388.988,317.373 389.176,317.576 Q389.379,317.764 389.379,318.029 Q389.379,318.295 389.113,318.607 Q388.722,319.045 388.113,319.295 Q387.301,319.639 386.316,319.639 Q385.16,319.639 384.222,319.17 Q383.472,318.779 382.941,317.967 Q382.426,317.139 382.426,316.17 L382.426,315.279 Q382.426,314.264 382.894,313.389 Q383.379,312.514 384.207,312.045 Q385.051,311.561 385.988,311.561 Q386.551,311.561 387.035,311.701 Q387.535,311.826 387.957,312.092 Z " fill="#000"/><text x="406.019" y="320.834" fill="#000" font-size="13" textLength="72.573" font-family="'Segoe UI'">CandidateCv</text><line x1="335" y1="330.451" x2="519.611" y2="330.451" style="stroke:#132B64;stroke-width:0.5;"/><g data-visibility-modifier="PRIVATE_FIELD"><rect x="342" y="341.597" width="6" height="6" fill="none" style="stroke:#C82930;stroke-width:1;"/></g><text x="353" y="348.479" fill="#000" font-size="13" textLength="49.493" font-family="'Segoe UI'">id : Long</text><g data-visibility-modifier="PRIVATE_FIELD"><rect x="342" y="358.888" width="6" height="6" fill="none" style="stroke:#C82930;stroke-width:1;"/></g><text x="353" y="365.771" fill="#000" font-size="13" textLength="140.918" font-family="'Segoe UI'">originalFileName : String</text><g data-visibility-modifier="PRIVATE_FIELD"><rect x="342" y="376.179" width="6" height="6" fill="none" style="stroke:#C82930;stroke-width:1;"/></g><text x="353" y="383.062" fill="#000" font-size="13" textLength="134.221" font-family="'Segoe UI'">storedFileName : String</text><g data-visibility-modifier="PRIVATE_FIELD"><rect x="342" y="393.47" width="6" height="6" fill="none" style="stroke:#C82930;stroke-width:1;"/></g><text x="353" y="400.353" fill="#000" font-size="13" textLength="87.521" font-family="'Segoe UI'">sizeBytes : long</text><g data-visibility-modifier="PRIVATE_FIELD"><rect x="342" y="410.761" width="6" height="6" fill="none" style="stroke:#C82930;stroke-width:1;"/></g><text x="353" y="417.644" fill="#000" font-size="13" textLength="84.443" font-family="'Segoe UI'">sha256 : String</text><g data-visibility-modifier="PRIVATE_FIELD"><rect x="342" y="428.052" width="6" height="6" fill="none" style="stroke:#C82930;stroke-width:1;"/></g><text x="353" y="434.935" fill="#000" font-size="13" textLength="121.082" font-family="'Segoe UI'">extractedText : String</text><g data-visibility-modifier="PRIVATE_FIELD"><rect x="342" y="445.343" width="6" height="6" fill="none" style="stroke:#C82930;stroke-width:1;"/></g><text x="353" y="452.226" fill="#000" font-size="13" textLength="161.611" font-family="'Segoe UI'">uploadedAt : LocalDateTime</text></g><!--class RecruiterProfile--><g class="entity" data-qualified-name="RecruiterProfile" id="ent0009" data-source-line="70"><rect x="539" y="265.951" width="290.522" height="228.201" fill="#FFF" style="stroke:#132B64;stroke-width:0.5;" rx="4" ry="4"/><rect x="539" y="265.951" width="290.522" height="30" fill="#EEF2FA" style="stroke:#EEF2FA;stroke-width:0.5;" rx="4" ry="4"/><rect x="539" y="291.951" width="290.522" height="4" fill="#EEF2FA" style="stroke:#EEF2FA;stroke-width:0.5;"/><rect x="539" y="265.951" width="290.522" height="228.201" fill="none" style="stroke:#132B64;stroke-width:0.5;" rx="4" ry="4"/><ellipse cx="636.307" cy="280.951" rx="10" ry="10" fill="#ADD1B2" style="stroke:#181818;stroke-width:1;"/><path d="M637.244,277.592 Q637.369,277.42 637.51,277.342 Q637.651,277.264 637.823,277.264 Q638.104,277.264 638.276,277.467 Q638.463,277.654 638.463,278.123 L638.463,279.232 Q638.463,279.701 638.276,279.904 Q638.104,280.092 637.823,280.092 Q637.557,280.092 637.401,279.951 Q637.244,279.811 637.166,279.404 Q637.119,279.139 636.994,278.998 Q636.729,278.701 636.26,278.529 Q635.791,278.357 635.323,278.357 Q634.744,278.357 634.244,278.623 Q633.76,278.873 633.385,279.451 Q633.01,280.014 633.01,280.795 L633.01,281.639 Q633.01,282.576 633.698,283.217 Q634.385,283.842 635.588,283.842 Q636.323,283.842 636.823,283.639 Q637.104,283.529 637.432,283.186 Q637.635,282.982 637.744,282.936 Q637.869,282.873 638.01,282.873 Q638.276,282.873 638.463,283.076 Q638.666,283.264 638.666,283.529 Q638.666,283.795 638.401,284.107 Q638.01,284.545 637.401,284.795 Q636.588,285.139 635.604,285.139 Q634.448,285.139 633.51,284.67 Q632.76,284.279 632.229,283.467 Q631.713,282.639 631.713,281.67 L631.713,280.779 Q631.713,279.764 632.182,278.889 Q632.666,278.014 633.494,277.545 Q634.338,277.061 635.276,277.061 Q635.838,277.061 636.323,277.201 Q636.823,277.326 637.244,277.592 Z " fill="#000"/><text x="655.307" y="286.334" fill="#000" font-size="13" textLength="87.909" font-family="'Segoe UI'">RecruiterProfile</text><line x1="540" y1="295.951" x2="828.522" y2="295.951" style="stroke:#132B64;stroke-width:0.5;"/><g data-visibility-modifier="PRIVATE_FIELD"><rect x="547" y="307.097" width="6" height="6" fill="none" style="stroke:#C82930;stroke-width:1;"/></g><text x="558" y="313.979" fill="#000" font-size="13" textLength="130.99" font-family="'Segoe UI'">companyName : String</text><g data-visibility-modifier="PRIVATE_FIELD"><rect x="547" y="324.388" width="6" height="6" fill="none" style="stroke:#C82930;stroke-width:1;"/></g><text x="558" y="331.271" fill="#000" font-size="13" textLength="87.636" font-family="'Segoe UI'">website : String</text><g data-visibility-modifier="PRIVATE_FIELD"><rect x="547" y="341.679" width="6" height="6" fill="none" style="stroke:#C82930;stroke-width:1;"/></g><text x="558" y="348.562" fill="#000" font-size="13" textLength="69.97" font-family="'Segoe UI'">logo : String</text><g data-visibility-modifier="PRIVATE_FIELD"><rect x="547" y="358.97" width="6" height="6" fill="none" style="stroke:#C82930;stroke-width:1;"/></g><text x="558" y="365.853" fill="#000" font-size="13" textLength="107.745" font-family="'Segoe UI'">description : String</text><g data-visibility-modifier="PRIVATE_FIELD"><rect x="547" y="376.261" width="6" height="6" fill="none" style="stroke:#C82930;stroke-width:1;"/></g><text x="558" y="383.144" fill="#000" font-size="13" textLength="90.181" font-family="'Segoe UI'">industry : String</text><g data-visibility-modifier="PRIVATE_FIELD"><rect x="547" y="393.552" width="6" height="6" fill="none" style="stroke:#C82930;stroke-width:1;"/></g><text x="558" y="400.435" fill="#000" font-size="13" textLength="119.742" font-family="'Segoe UI'">headquarters : String</text><g data-visibility-modifier="PRIVATE_FIELD"><rect x="547" y="410.843" width="6" height="6" fill="none" style="stroke:#C82930;stroke-width:1;"/></g><text x="558" y="417.726" fill="#000" font-size="13" textLength="124.56" font-family="'Segoe UI'">foundedYear : Integer</text><g data-visibility-modifier="PRIVATE_FIELD"><rect x="547" y="428.134" width="6" height="6" fill="none" style="stroke:#C82930;stroke-width:1;"/></g><text x="558" y="435.017" fill="#000" font-size="13" textLength="235.054" font-family="'Segoe UI'">mission / vision / companyValues : String</text><g data-visibility-modifier="PRIVATE_FIELD"><rect x="547" y="445.425" width="6" height="6" fill="none" style="stroke:#C82930;stroke-width:1;"/></g><text x="558" y="452.308" fill="#000" font-size="13" textLength="117.355" font-family="'Segoe UI'">technologies : String</text><g data-visibility-modifier="PRIVATE_FIELD"><rect x="547" y="462.716" width="6" height="6" fill="none" style="stroke:#C82930;stroke-width:1;"/></g><text x="558" y="469.599" fill="#000" font-size="13" textLength="265.522" font-family="'Segoe UI'">companyImportStatus : CompanyImportStatus</text><g data-visibility-modifier="PRIVATE_FIELD"><rect x="547" y="480.007" width="6" height="6" fill="none" style="stroke:#C82930;stroke-width:1;"/></g><text x="558" y="486.89" fill="#000" font-size="13" textLength="132.787" font-family="'Segoe UI'">autoFilledFields : String</text></g><!--class PasswordResetToken--><g class="entity" data-qualified-name="PasswordResetToken" id="ent0010" data-source-line="84"><rect x="848.5" y="326.451" width="197.745" height="107.164" fill="#FFF" style="stroke:#132B64;stroke-width:0.5;" rx="4" ry="4"/><rect x="848.5" y="326.451" width="197.745" height="30" fill="#EEF2FA" style="stroke:#EEF2FA;stroke-width:0.5;" rx="4" ry="4"/><rect x="848.5" y="352.451" width="197.745" height="4" fill="#EEF2FA" style="stroke:#EEF2FA;stroke-width:0.5;"/><rect x="848.5" y="326.451" width="197.745" height="107.164" fill="none" style="stroke:#132B64;stroke-width:0.5;" rx="4" ry="4"/><ellipse cx="883.781" cy="341.451" rx="10" ry="10" fill="#ADD1B2" style="stroke:#181818;stroke-width:1;"/><path d="M884.719,338.092 Q884.844,337.92 884.985,337.842 Q885.125,337.764 885.297,337.764 Q885.578,337.764 885.75,337.967 Q885.938,338.154 885.938,338.623 L885.938,339.732 Q885.938,340.201 885.75,340.404 Q885.578,340.592 885.297,340.592 Q885.031,340.592 884.875,340.451 Q884.719,340.311 884.641,339.904 Q884.594,339.639 884.469,339.498 Q884.203,339.201 883.735,339.029 Q883.266,338.857 882.797,338.857 Q882.219,338.857 881.719,339.123 Q881.235,339.373 880.86,339.951 Q880.485,340.514 880.485,341.295 L880.485,342.139 Q880.485,343.076 881.172,343.717 Q881.86,344.342 883.063,344.342 Q883.797,344.342 884.297,344.139 Q884.578,344.029 884.906,343.686 Q885.11,343.482 885.219,343.436 Q885.344,343.373 885.485,343.373 Q885.75,343.373 885.938,343.576 Q886.141,343.764 886.141,344.029 Q886.141,344.295 885.875,344.607 Q885.485,345.045 884.875,345.295 Q884.063,345.639 883.078,345.639 Q881.922,345.639 880.985,345.17 Q880.235,344.779 879.703,343.967 Q879.188,343.139 879.188,342.17 L879.188,341.279 Q879.188,340.264 879.656,339.389 Q880.141,338.514 880.969,338.045 Q881.813,337.561 882.75,337.561 Q883.313,337.561 883.797,337.701 Q884.297,337.826 884.719,338.092 Z " fill="#000"/><text x="901.511" y="346.834" fill="#000" font-size="13" textLength="120.453" font-family="'Segoe UI'">PasswordResetToken</text><line x1="849.5" y1="356.451" x2="1045.245" y2="356.451" style="stroke:#132B64;stroke-width:0.5;"/><g data-visibility-modifier="PRIVATE_FIELD"><rect x="856.5" y="367.597" width="6" height="6" fill="none" style="stroke:#C82930;stroke-width:1;"/></g><text x="867.5" y="374.479" fill="#000" font-size="13" textLength="172.745" font-family="'Segoe UI'">tokenHash : String «SHA-256»</text><g data-visibility-modifier="PRIVATE_FIELD"><rect x="856.5" y="384.888" width="6" height="6" fill="none" style="stroke:#C82930;stroke-width:1;"/></g><text x="867.5" y="391.771" fill="#000" font-size="13" textLength="149.919" font-family="'Segoe UI'">createdAt : LocalDateTime</text><g data-visibility-modifier="PRIVATE_FIELD"><rect x="856.5" y="402.179" width="6" height="6" fill="none" style="stroke:#C82930;stroke-width:1;"/></g><text x="867.5" y="409.062" fill="#000" font-size="13" textLength="147.513" font-family="'Segoe UI'">expiresAt : LocalDateTime</text><g data-visibility-modifier="PRIVATE_FIELD"><rect x="856.5" y="419.47" width="6" height="6" fill="none" style="stroke:#C82930;stroke-width:1;"/></g><text x="867.5" y="426.353" fill="#000" font-size="13" textLength="134.45" font-family="'Segoe UI'">usedAt : LocalDateTime</text></g><g class="link" data-entity-1="ent0004" data-entity-2="ent0005" id="lnk11" data-link-type="association"><path d="M456.328,177.634 C412.692,200.008 362.868,230.073 324.5,265.951 C316.245,273.671 308.449,282.468 301.23,291.667" style="stroke:#132B64;stroke-width:1;" fill="none"/><text x="366.5" y="243.821" fill="#000" font-size="11" textLength="70.367" font-family="'Segoe UI'">profil candidat</text><text x="284.23" y="288.538" fill="#000" font-size="11" textLength="16.629" font-family="'Segoe UI'">0..1</text><text x="450.328" y="174.504" fill="#000" font-size="11" font-family="'Segoe UI'">1</text></g><g class="link" data-entity-1="ent0004" data-entity-2="ent0009" id="lnk12" data-link-type="association"><path d="M597.528,212.142 C606.449,229.252 616.057,247.68 625.518,265.825" style="stroke:#132B64;stroke-width:1;" fill="none"/><text x="615.5" y="243.821" fill="#000" font-size="11" textLength="44.236" font-family="'Segoe UI'">recruteur</text><text x="608.518" y="262.695" fill="#000" font-size="11" textLength="16.629" font-family="'Segoe UI'">0..1</text><text x="591.528" y="225.012" fill="#000" font-size="11" font-family="'Segoe UI'">1</text></g><g class="link" data-entity-1="ent0005" data-entity-2="ent0007" id="lnk13" data-link-type="composition"><polygon points="282.913,467.991,281.329,475.026,287.214,479.194,288.798,472.159,282.913,467.991" fill="#132B64" style="stroke:#132B64;stroke-width:1;stroke-linejoin:miter;stroke-miterlimit:10;"/><path d="M287.214,479.194 C295.32,500.309 299.516,511.239 307.049,530.864" style="stroke:#132B64;stroke-width:1;" fill="none"/><text x="291.049" y="527.734" fill="#000" font-size="11" textLength="15.286" font-family="'Segoe UI'">0..*</text><text x="276.913" y="480.861" fill="#000" font-size="11" font-family="'Segoe UI'">1</text></g><g class="link" data-entity-1="ent0005" data-entity-2="ent0006" id="lnk14" data-link-type="composition"><polygon points="215.674,467.991,209.772,472.135,211.327,479.176,217.229,475.033,215.674,467.991" fill="#132B64" style="stroke:#132B64;stroke-width:1;stroke-linejoin:miter;stroke-miterlimit:10;"/><path d="M211.327,479.176 C199.283,510.167 190.734,532.167 181.318,556.395" style="stroke:#132B64;stroke-width:1;" fill="none"/><text x="165.318" y="553.265" fill="#000" font-size="11" textLength="15.286" font-family="'Segoe UI'">0..*</text><text x="209.674" y="480.861" fill="#000" font-size="11" font-family="'Segoe UI'">1</text></g><g class="link" data-entity-1="ent0004" data-entity-2="ent0008" id="lnk15" data-link-type="association"><path d="M515.151,212.142 C500.339,240.332 483.648,272.097 468.836,300.285" style="stroke:#132B64;stroke-width:1;" fill="none"/><text x="506.5" y="243.821" fill="#000" font-size="11" textLength="77.371" font-family="'Segoe UI'">CV de matching</text><text x="451.836" y="297.155" fill="#000" font-size="11" textLength="16.629" font-family="'Segoe UI'">0..1</text><text x="509.151" y="225.012" fill="#000" font-size="11" font-family="'Segoe UI'">1</text></g><g class="link" data-entity-1="ent0004" data-entity-2="ent0010" id="lnk16" data-link-type="association"><path d="M656.601,170.014 C712.802,193.039 782.641,225.961 838.5,265.951 C862.325,283.008 885.362,305.666 904.07,326.213" style="stroke:#132B64;stroke-width:1;" fill="none"/><text x="888.07" y="323.083" fill="#000" font-size="11" textLength="15.286" font-family="'Segoe UI'">0..*</text><text x="657.601" y="166.884" fill="#000" font-size="11" font-family="'Segoe UI'">1</text></g><?plantuml-src XLNRRjim37tFLsXvBD3k0cmFGH4WJPpMW9jcZbDWJuLgiJ5HMV8agcqsxDz7E-ubThgzKRoS7FBGp8VAoKqfXPPR6qZu4aWQEVY09jT1WRZnjDLmKeLI3mfa1vGLRGMd5LRv0I5f43EK6oVB4WGdv5fw3rwCH6uvboqWKJbxXzeF1c12ALBBHRy7GamdYraycsGHssaqJTTn5gM3FsrQ8iqco0qay02woLzCilYwJfudwsYHiR5Ch-RHQXLVBIO9F-C50rn6itY7UJPPnTCNl2dpaMORbvLrj299mUzGhxARDFg-ZbPPD6j0RXZsF6NSckFLvJA9Tf7v94xOOC2cIx7su1g8Ou6AEqwisJIlEtIU5f8dCX8hSjYwkUY05qg9UjzLCVgZTUh5AqvFpwPkMz5ut2IuUeIZPfBDEtUWm11AxQS5pmtKX3WU6yzwqYlZgJGAbIHODef0oxu0gJIQ3h5Rj1scAkIIq9eEMymfk4vnS3f1SmyAJIzmZbI4svvxoRhSMTtzLN-FMjSBbQ2dqrrWVA2bvtrfUzBFptq9ccKQxI_NArZqL853C3aSrBMo7llzvxl5wh0cwMZ6j9hwNEhQtatHg9w_tytquI03wt23HkevYzTV9K-M5-6T6Fw2ioqrdwP-XlE5_FBrMqVb9t8o9r0PMnsHAcsbQfVhXNs6vPiEKiXTG0AtlsBjaFgy7k6MXzgLoMuwMw30vmwh_lJHgE39TSPVR_JFm1A0y_kHEniCj_03f6k-488Dk2PIelSr_4VnWAtHihwMEa07Xo0lZ6MYs8ta1mxDwD3vQR9b8CkAwLetqEeDrij8b-qvIC43PVOUJ3jKgkqBwOktXs9rCJbcKTjBmPU19Jgas4xh2XtuTwB1loTrS_c6duVY-5WCFvsSiDKxBQFsx8kyZHogwctBIBZQHH2S60zwe7NrKLj-D7pplVutjNSd_ja4VtuisNNzZrPAoejwjEDU1SFsjVaB?></g></svg>