<svg xmlns="http://www.w3.org/2000/svg" xmlns:xlink="http://www.w3.org/1999/xlink" version="1.1" data-diagram-type="SEQUENCE" style="width:649px;height:576px;background:#FFFFFF;" width="649px" height="576px" viewBox="0 0 649 576" zoomAndPan="magnify" preserveAspectRatio="none" contentStyleType="text/css"><?plantuml 1.2026.8?><defs/><g font-family="sans-serif" lengthAdjust="spacing"><rect x="10" y="15" width="628.584" height="545.028" fill="#FFF" style="stroke:#181818;stroke-width:1.5;" rx="2" ry="2"/><path d="M462.586,15 L462.586,24.099 L452.586,34.099 L10,34.099" style="stroke:#181818;stroke-width:1.5;" fill="none"/><text x="13" y="29.132" fill="#000" font-size="14" textLength="442.586" font-family="'Arial'">Diagramme de séquence système "Importer le profil depuis le site web"</text><rect x="35.539" y="272.84" width="564.42" height="246.089" fill="none" style="stroke:#000;stroke-width:1.5;" rx="2" ry="2"/><g><title>Recruteur</title><rect x="48.039" y="136.996" width="8" height="405.933" fill="#000" fill-opacity="0"/><line x1="51.539" y1="136.996" x2="51.539" y2="542.929" style="stroke:#000;stroke-width:0.5;stroke-dasharray:5,5;"/></g><g><title>Syst.me</title><rect x="317.944" y="136.996" width="8" height="405.933" fill="#000" fill-opacity="0"/><line x1="321.444" y1="136.996" x2="321.444" y2="542.929" style="stroke:#000;stroke-width:0.5;stroke-dasharray:5,5;"/></g><g><title>Site web</title><rect x="580.459" y="136.996" width="8" height="405.933" fill="#000" fill-opacity="0"/><line x1="583.959" y1="136.996" x2="583.959" y2="542.929" style="stroke:#000;stroke-width:0.5;stroke-dasharray:5,5;"/></g><text x="20" y="134.241" fill="#000" font-size="13" textLength="57.078" font-family="'Arial'">Recruteur</text><ellipse cx="51.539" cy="70.547" rx="8" ry="8" fill="#FFF" style="stroke:#000;stroke-width:0.5;"/><path d="M51.539,78.547 L51.539,105.547 M38.539,86.547 L64.539,86.547 M51.539,105.547 L38.539,120.547 M51.539,105.547 L64.539,120.547" style="stroke:#000;stroke-width:0.5;" fill="none"/><rect x="289.158" y="107.047" width="64.572" height="28.949" fill="#FFF" style="stroke:#000;stroke-width:0.5;" rx="2" ry="2"/><text x="296.158" y="126.241" fill="#000" font-size="13" textLength="50.572" font-family="'Arial'">Système</text><text x="556.029" y="119.292" fill="#000" font-size="13" textLength="49.861" font-family="'Arial'">Site web</text><text x="540.334" y="134.241" fill="#000" font-size="13" textLength="81.25" font-family="'Arial'">de l'entreprise</text><ellipse cx="583.959" cy="55.599" rx="8" ry="8" fill="#FFF" style="stroke:#000;stroke-width:0.5;"/><path d="M583.959,63.599 L583.959,90.599 M570.959,71.599 L596.959,71.599 M583.959,90.599 L570.959,105.599 M583.959,90.599 L596.959,105.599" style="stroke:#000;stroke-width:0.5;" fill="none"/><rect x="22" y="144.996" width="329.73" height="39.897" fill="#FFF" style="stroke:#000;stroke-width:1.5;" rx="2" ry="2"/><path d="M24,144.996 L83,144.996 L83,150.996 L73,160.996 L22,160.996 L22,146.996 A2,2 0 0 1 24,144.996" style="stroke:#000;stroke-width:2;" fill="#EEE"/><text x="35" y="159.19" fill="#000" font-size="13" textLength="16.618" font-weight="700" font-family="'Arial'">ref</text><text x="149.128" y="177.19" fill="#000" font-size="13" textLength="75.474" font-family="'Arial'">S'authentifier</text><polygon points="309.444,217.191,319.444,221.191,309.444,225.191,313.444,221.191" fill="#000" style="stroke:#000;stroke-width:1;stroke-linejoin:miter;stroke-miterlimit:10;"/><line x1="51.539" y1="221.191" x2="315.444" y2="221.191" style="stroke:#000;stroke-width:1;"/><text x="58.539" y="204.211" fill="#000" font-size="11" textLength="192.86" font-family="'Arial'">1: Saisir l'adresse du site web et cliquer</text><text x="58.539" y="216.86" fill="#000" font-size="11" textLength="187.526" font-family="'Arial'">sur "Fill empty fields from this website"</text><line x1="321.444" y1="247.84" x2="363.444" y2="247.84" style="stroke:#000;stroke-width:1;"/><line x1="363.444" y1="247.84" x2="363.444" y2="260.84" style="stroke:#000;stroke-width:1;"/><line x1="322.444" y1="260.84" x2="363.444" y2="260.84" style="stroke:#000;stroke-width:1;"/><polygon points="332.444,256.84,322.444,260.84,332.444,264.84,328.444,260.84" fill="#000" style="stroke:#000;stroke-width:1;stroke-linejoin:miter;stroke-miterlimit:10;"/><text x="328.444" y="243.509" fill="#000" font-size="11" textLength="248.515" font-family="'Arial'">2: Vérifier l'adresse (adresse publique uniquement)</text><path d="M37.539,272.84 L95.71,272.84 L95.71,279.789 L85.71,289.789 L35.539,289.789 L35.539,274.84 A2,2 0 0 1 37.539,272.84" style="stroke:#000;stroke-width:1.5;" fill="#EEE"/><rect x="35.539" y="272.84" width="564.42" height="246.089" fill="none" style="stroke:#000;stroke-width:1.5;" rx="2" ry="2"/><text x="50.539" y="286.034" fill="#000" font-size="13" textLength="15.171" font-weight="700" font-family="'Arial'">alt</text><text x="110.71" y="287.034" fill="#000" font-size="13" textLength="98.274" font-weight="700" font-family="'Arial'">[adresse valide]</text><polygon points="62.539,314.438,52.539,318.438,62.539,322.438,58.539,318.438" fill="#000" style="stroke:#000;stroke-width:1;stroke-linejoin:miter;stroke-miterlimit:10;"/><line x1="56.539" y1="318.438" x2="320.444" y2="318.438" style="stroke:#000;stroke-width:1;stroke-dasharray:2,2;"/><text x="68.539" y="314.107" fill="#000" font-size="11" textLength="245.905" font-family="'Arial'">3: Afficher "We're building your company profile…"</text><polygon points="571.959,341.087,581.959,345.087,571.959,349.087,575.959,345.087" fill="#000" style="stroke:#000;stroke-width:1;stroke-linejoin:miter;stroke-miterlimit:10;"/><line x1="321.444" y1="345.087" x2="577.959" y2="345.087" style="stroke:#000;stroke-width:1;"/><text x="328.444" y="340.756" fill="#000" font-size="11" textLength="130.867" font-family="'Arial'">4: Lire les pages publiques</text><polygon points="332.444,367.736,322.444,371.736,332.444,375.736,328.444,371.736" fill="#000" style="stroke:#000;stroke-width:1;stroke-linejoin:miter;stroke-miterlimit:10;"/><line x1="326.444" y1="371.736" x2="582.959" y2="371.736" style="stroke:#000;stroke-width:1;stroke-dasharray:2,2;"/><text x="338.444" y="367.405" fill="#000" font-size="11" textLength="107.637" font-family="'Arial'">5: Contenu des pages</text><line x1="321.444" y1="411.034" x2="363.444" y2="411.034" style="stroke:#000;stroke-width:1;"/><line x1="363.444" y1="411.034" x2="363.444" y2="424.034" style="stroke:#000;stroke-width:1;"/><line x1="322.444" y1="424.034" x2="363.444" y2="424.034" style="stroke:#000;stroke-width:1;"/><polygon points="332.444,420.034,322.444,424.034,332.444,428.034,328.444,424.034" fill="#000" style="stroke:#000;stroke-width:1;stroke-linejoin:miter;stroke-miterlimit:10;"/><text x="328.444" y="394.054" fill="#000" font-size="11" textLength="179.115" font-family="'Arial'">6: Extraire les informations et remplir</text><text x="328.444" y="406.703" fill="#000" font-size="11" textLength="144.912" font-family="'Arial'">uniquement les champs vides</text><polygon points="62.539,459.332,52.539,463.332,62.539,467.332,58.539,463.332" fill="#000" style="stroke:#000;stroke-width:1;stroke-linejoin:miter;stroke-miterlimit:10;"/><line x1="56.539" y1="463.332" x2="320.444" y2="463.332" style="stroke:#000;stroke-width:1;stroke-dasharray:2,2;"/><text x="68.539" y="446.352" fill="#000" font-size="11" textLength="146.717" font-family="'Arial'">7: Afficher les champs remplis</text><text x="68.539" y="459" fill="#000" font-size="11" textLength="151.459" font-family="'Arial'">(marqués "From your website")</text><line x1="35.539" y1="472.332" x2="599.959" y2="472.332" style="stroke:#000;stroke-width:1;stroke-dasharray:2,2;"/><text x="40.539" y="486.525" fill="#000" font-size="13" textLength="236.272" font-weight="700" font-family="'Arial'">[adresse invalide ou site inaccessible]</text><polygon points="62.539,506.929,52.539,510.929,62.539,514.929,58.539,510.929" fill="#000" style="stroke:#000;stroke-width:1;stroke-linejoin:miter;stroke-miterlimit:10;"/><line x1="56.539" y1="510.929" x2="320.444" y2="510.929" style="stroke:#000;stroke-width:1;stroke-dasharray:2,2;"/><text x="68.539" y="506.598" fill="#000" font-size="11" textLength="222.068" font-family="'Arial'">8: Afficher un message d'erreur et "Try again"</text><?plantuml-src LLFBZjD04BpFLpI-U5VQHUAvo8UL40y9YLECo2KIcepRIKlpsfwPW6zy3IBVaJ_XIsWxDcGlTckwkhggndv2tjZI8NnBUR3uD1PdbTFaUzOEuJtfdHHI2IITZWy5lP5gIFdqMqwhJou6piXW4IA7dgmWOw4q7YJA2DznMocbJGuCrGeDbuo5Az09LYfgpcGeQf-XQcVMgTSk8-rCil4YmTReCsDaIcVOMYd67i919Anke8K6sbgNl1SSzOIiLd1xFvq_avQcHAArrXrZIkAg_1C9cC5O4eUyyQd8vezaBQ2BUG1Xibs2deE3l1TtCZ0ELgfTw9ytyFLqv6dfnOQhfOXbEx53yUFBYS1hfMs61N3GbZfK86otmhaIpXSDlErxCdkXhDPOCyAsaEt8xs08ej449zaDS_Juv-Ulwanm3skPVzd0Pv8XYmcYtetFMKKIs7hQCsf_rS2xu3Fw8hStGnUUiV-wWGy_Ckk5IpwFm4vd2ZwDkR6aP4bo--zjmfczTZ71GNobHyRkBenT0CyyQUEldEQ7SZeckOKnyydialcrGYjvBRcHFoS7ORvCyjeOQT7MFexppSNMui49Hfn2LoEpV9EZa-eB3w1tyWDK2dtt5m00?></g></svg>